<?xml version="1.0" encoding="UTF-8"?>
<svg version="1.1" xmlns="http://www.w3.org/2000/svg" width="1254" height="1254">
<path d="M0 0 C413.82 0 827.64 0 1254 0 C1254 413.82 1254 827.64 1254 1254 C840.18 1254 426.36 1254 0 1254 C0 840.18 0 426.36 0 0 Z " fill="#FDFDFD" transform="translate(0,0)"/>
<path d="M0 0 C2.36308068 0.6886313 4.72410507 1.34027928 7.10839844 1.94897461 C53.23231302 14.31739863 101.9241682 40.74326024 136.60839844 73.63256836 C138.97660887 75.82591895 141.429251 77.78493945 143.97949219 79.76147461 C149.78931876 84.44464885 155.0183251 89.6757863 160.29199219 94.94897461 C161.14398193 95.80023926 161.99597168 96.65150391 162.8737793 97.52856445 C167.79389402 102.49150462 172.52323312 107.55604768 177.04199219 112.88647461 C177.58404297 113.52174072 178.12609375 114.15700684 178.68457031 114.81152344 C202.67066017 143.10472403 223.80083406 174.87825 236.79589844 209.77319336 C238.00944149 212.94786688 238.00944149 212.94786688 239.69433594 216.09350586 C241.04199219 218.88647461 241.04199219 218.88647461 241.04199219 221.88647461 C242.19699219 221.82459961 243.35199219 221.76272461 244.54199219 221.69897461 C270.50167195 221.86096949 294.286627 234.99533595 312.28027344 252.90209961 C335.76653842 277.24230202 346.76841176 308.68888306 346.47949219 342.19897461 C346.47443161 343.34659271 346.47443161 343.34659271 346.4692688 344.51739502 C346.39359859 356.39405828 345.5615231 367.49726261 342.04199219 378.88647461 C341.67195068 380.1563623 341.67195068 380.1563623 341.29443359 381.4519043 C333.08353713 409.40625162 317.71529766 433.73635814 292.04199219 448.88647461 C288.52540747 450.79836413 284.95933031 452.58484318 281.35449219 454.32397461 C280.50000488 454.73719971 279.64551758 455.1504248 278.76513672 455.57617188 C269.54787706 459.85088143 260.20941713 462.09565441 250.16699219 463.38647461 C249.26553467 463.50974121 248.36407715 463.63300781 247.43530273 463.76000977 C243.77610925 464.26018958 240.11486374 464.74439654 236.45361328 465.22924805 C225.58980626 466.67887613 214.81111589 468.40362663 204.04199219 470.44897461 C202.92542236 470.65893066 201.80885254 470.86888672 200.65844727 471.08520508 C199.60939209 471.28903809 198.56033691 471.49287109 197.47949219 471.70288086 C196.55007813 471.88278564 195.62066406 472.06269043 194.66308594 472.24804688 C191.98958732 472.89923902 189.59228574 473.86444492 187.04199219 474.88647461 C185.00561523 475.29711914 185.00561523 475.29711914 183.05371094 475.51928711 C181.99506836 475.6449707 181.99506836 475.6449707 180.91503906 475.77319336 C180.19380859 475.85182617 179.47257813 475.93045898 178.72949219 476.01147461 C177.98892578 476.0978418 177.24835937 476.18420898 176.48535156 476.27319336 C174.67160784 476.48382166 172.85688676 476.68600447 171.04199219 476.88647461 C171.04199219 477.54647461 171.04199219 478.20647461 171.04199219 478.88647461 C170.2234375 479.07081055 169.40488281 479.25514648 168.56152344 479.44506836 C155.33670887 482.5805618 142.43162974 486.71121104 129.47753906 490.80541992 C126.44551119 491.75950032 123.4096273 492.6987613 120.37011719 493.62866211 C112.65195092 496.00026178 105.14147204 498.50559034 97.72949219 501.73803711 C95.02900397 502.89202481 92.30902987 503.90386179 89.54199219 504.88647461 C57.08631279 516.46370927 24.62363025 532.09040971 -5.62304688 548.61743164 C-8.23327806 550.03608301 -10.85663412 551.42858594 -13.48144531 552.82006836 C-30.85968431 562.07369657 -47.73956055 572.12445071 -64.59812927 582.28492737 C-67.07681101 583.7768306 -69.5588039 585.26316699 -72.04135132 586.74862671 C-73.79480477 587.80104523 -75.54304324 588.86176417 -77.29125977 589.92285156 C-78.3543335 590.55924561 -79.41740723 591.19563965 -80.51269531 591.85131836 C-81.44581543 592.41455811 -82.37893555 592.97779785 -83.34033203 593.55810547 C-85.99801902 594.90677875 -87.99000763 595.65076195 -90.95800781 595.88647461 C-93.00561523 595.18408203 -93.00561523 595.18408203 -95.06347656 593.99194336 C-95.86487061 593.53996582 -96.66626465 593.08798828 -97.49194336 592.62231445 C-98.36761963 592.1113623 -99.2432959 591.60041016 -100.14550781 591.07397461 C-102.11274897 589.96322515 -104.08161234 588.85534573 -106.05175781 587.74975586 C-107.14101563 587.13567871 -108.23027344 586.52160156 -109.35253906 585.88891602 C-116.21470563 582.0535164 -123.19149754 578.42657886 -130.14550781 574.76147461 C-131.63849773 573.9732771 -133.13141799 573.18494763 -134.62426758 572.39648438 C-137.4761537 570.89041839 -140.32849886 569.38522717 -143.18115234 567.88061523 C-146.29593707 566.23708573 -149.40723189 564.58710605 -152.51660156 562.93334961 C-196.48020643 539.58166673 -241.89994606 519.59325758 -288.51269531 502.18334961 C-291.32646158 501.12419949 -294.11438001 500.02745012 -296.89550781 498.88647461 C-304.9710796 495.65380614 -313.22721789 493.18134941 -321.5793457 490.77539062 C-325.13385115 489.7455729 -328.65286617 488.66214421 -332.15332031 487.46069336 C-361.96307865 477.42819425 -393.91104806 470.66514881 -424.95800781 465.88647461 C-426.39195236 465.65453444 -427.82586916 465.42242276 -429.25976562 465.19018555 C-441.11069913 463.30428504 -452.95487957 462.0043324 -464.91162109 461.00610352 C-467.82498327 460.76214656 -470.73716942 460.50667544 -473.64941406 460.24975586 C-486.74127299 459.11774992 -499.82705259 458.37945225 -512.95800781 457.88647461 C-513.2122834 449.73552926 -512.83994019 441.79370426 -512.06738281 433.68725586 C-510.91311872 420.99460912 -510.11055638 408.28717298 -509.32611084 395.56716919 C-507.87322819 372.07573831 -506.21837498 348.6085018 -504.32446289 325.14794922 C-503.27386054 312.10906005 -502.32274971 299.07033343 -501.55322266 286.01171875 C-501.25294197 280.99060191 -500.87850702 276.04219909 -500.20141602 271.05517578 C-499.60844486 265.77196338 -499.43636186 260.44300347 -499.14550781 255.13647461 C-498.25592213 239.51773647 -497.09578998 223.92155276 -495.89550781 208.32397461 C-495.76358536 206.59624817 -495.76358536 206.59624817 -495.6289978 204.83361816 C-495.37516739 201.51641211 -495.11836042 198.19945179 -494.86035156 194.88256836 C-494.7843573 193.8910527 -494.70836304 192.89953705 -494.63006592 191.87797546 C-494.2084966 186.5233243 -493.67092125 181.21037244 -492.95800781 175.88647461 C-490.18801966 175.40195523 -487.417161 174.92379966 -484.64550781 174.44897461 C-483.49598633 174.24691406 -483.49598633 174.24691406 -482.32324219 174.04077148 C-472.50777924 172.37092094 -463.27051281 171.73585677 -453.34863281 172.63256836 C-433.33109873 174.8958678 -433.33109873 174.8958678 -414.58105469 169.84155273 C-409.48156197 164.445158 -406.89090042 157.95656397 -404.30371094 151.0847168 C-402.18614053 146.05202952 -399.05217476 141.97770376 -395.70800781 137.69897461 C-395.12913818 136.92859863 -394.55026855 136.15822266 -393.95385742 135.36450195 C-388.88703857 128.64215906 -383.50853388 122.21170464 -377.95800781 115.88647461 C-377.34828125 115.17749023 -376.73855469 114.46850586 -376.11035156 113.73803711 C-365.46367705 101.40500989 -354.37105235 89.46289521 -341.95800781 78.88647461 C-340.94153104 77.99551836 -339.92598363 77.10350122 -338.91113281 76.21069336 C-286.15791761 30.03636582 -220.8214797 1.44972467 -151.95800781 -10.11352539 C-150.53415771 -10.36344238 -150.53415771 -10.36344238 -149.08154297 -10.6184082 C-100.37951546 -18.8475771 -47.175852 -13.81218127 0 0 Z " fill="#03409E" transform="translate(704.9580078125,251.113525390625)"/>
<path d="M0 0 C1.20140625 -0.01611328 2.4028125 -0.03222656 3.640625 -0.04882812 C4.81625 -0.04947266 5.991875 -0.05011719 7.203125 -0.05078125 C8.24629883 -0.05376221 9.28947266 -0.05674316 10.36425781 -0.05981445 C14.82567428 0.43078694 18.85347701 0.96825597 22.75 3.3125 C24.69041138 6.07215766 25.45530762 8.97880129 26.3046875 12.21875 C26.57307434 13.11921555 26.84146118 14.01968109 27.11798096 14.94743347 C27.9880534 17.89363199 28.80596254 20.85175127 29.625 23.8125 C30.21860971 25.85115116 30.81613799 27.8886652 31.41748047 29.92504883 C32.63362281 34.05575608 33.83237371 38.19087994 35.01757812 42.33056641 C37.27765375 50.18708733 39.70950537 57.98729156 42.175354 65.78125 C42.85668968 67.94193345 43.52883896 70.10527605 44.19873047 72.26953125 C46.17812674 78.62838239 48.30287162 84.84934577 50.85205078 91.00317383 C52.41337627 95.01855659 53.5010847 99.15776636 54.625 103.3125 C56.55754175 110.27250965 58.61880522 117.15861627 60.9375 124 C61.18967285 124.74507812 61.4418457 125.49015625 61.70166016 126.2578125 C62.17569218 127.65682363 62.64996081 129.05575463 63.12451172 130.45458984 C66.05096157 139.14712825 68.96296802 148.05658204 68.75 157.3125 C69.41 157.3125 70.07 157.3125 70.75 157.3125 C70.9459375 156.30316406 71.141875 155.29382813 71.34375 154.25390625 C73.46140546 143.85334695 76.37338459 133.85768817 79.68334961 123.77661133 C81.88022578 117.07514761 83.92601361 110.35757013 85.8125 103.5625 C88.00852318 95.68234477 90.50201806 87.94189476 93.14038086 80.19970703 C95.5337703 73.11548603 97.61033789 65.96644703 99.62109375 58.765625 C101.37524429 52.51822254 103.36411456 46.40179218 105.46484375 40.26171875 C107.07542314 35.42998059 108.4327117 30.52655011 109.8125 25.625 C113.23024982 13.54649675 113.23024982 13.54649675 114.9375 8.125 C115.21980469 7.22394531 115.50210938 6.32289063 115.79296875 5.39453125 C116.75 3.3125 116.75 3.3125 119.75 1.3125 C126.43162579 0.11772181 133.10231505 0.12910964 139.875 0.125 C140.91398438 0.11275391 141.95296875 0.10050781 143.0234375 0.08789062 C148.83411207 0.07715662 154.40887402 0.46686299 160.15966797 1.3269043 C161.39989716 1.51044968 162.64012634 1.69399506 163.91793823 1.88310242 C164.85251862 2.02480362 165.787099 2.16650482 166.75 2.3125 C166.79692836 2.87233015 166.84385672 3.4321603 166.89220715 4.008955 C168.06150774 17.95750694 169.23159707 31.90599255 170.40245342 45.85441399 C170.96877027 52.60115521 171.53484951 59.34791616 172.1003418 66.09472656 C174.70826934 97.20749999 177.33681167 128.31821173 180.03910828 159.42294312 C181.78265234 179.5195433 183.42979334 199.62364958 185.05078125 219.73046875 C185.12455427 220.64330722 185.19832729 221.55614569 185.27433586 222.49664593 C185.64351951 227.11923214 185.81985161 231.67536739 185.75 236.3125 C173.85708831 238.75207163 161.55397374 239.83569042 149.75 236.3125 C147.61168112 234.17418112 148.07737072 229.63020861 147.80859375 226.671875 C147.72266464 225.74518005 147.63673553 224.81848511 147.54820251 223.8637085 C146.41389051 211.14610803 145.69777883 198.39827295 144.93773651 185.65407181 C144.55315411 179.23117083 144.15764985 172.80892849 143.76171875 166.38671875 C143.71848732 165.68410353 143.67525589 164.9814883 143.63071442 164.25758171 C142.94251243 153.0984013 142.1672175 141.94816049 141.31115723 130.80065918 C139.07754834 101.69636925 137.18631363 72.51578992 137.75 43.3125 C137.09 43.3125 136.43 43.3125 135.75 43.3125 C135.55470703 44.85164063 135.55470703 44.85164063 135.35546875 46.421875 C133.64267806 57.42793644 129.56605819 68.1751544 126.19140625 78.7734375 C125.00217639 82.50924623 123.83623288 86.25150322 122.6875 90 C119.31563324 101.00002435 115.86459918 111.97431849 112.375 122.9375 C112.07875732 123.86820313 111.78251465 124.79890625 111.47729492 125.7578125 C109.98600887 130.44000915 108.4914811 135.12114251 106.9921875 139.80078125 C103.64360351 150.26826923 100.36491663 160.75174355 97.234375 171.28686523 C95.54725984 176.90701666 93.67263265 182.42485215 91.63061523 187.92626953 C90.6064832 190.70139193 89.66253869 193.49883903 88.75 196.3125 C82.22871128 197.53676815 75.86596648 197.49647712 69.25 197.5 C67.43435547 197.51836914 67.43435547 197.51836914 65.58203125 197.53710938 C63.82439453 197.54000977 63.82439453 197.54000977 62.03125 197.54296875 C60.96970703 197.54707764 59.90816406 197.55118652 58.81445312 197.55541992 C55.47185481 197.29045137 52.82981526 196.63469511 49.75 195.3125 C48.39453125 192.58984375 48.39453125 192.58984375 47.5625 189.25 C46.15523615 183.84584977 44.54769414 178.59582497 42.75 173.3125 C42.24852765 171.80126902 41.74851763 170.28955199 41.25 168.77734375 C41.0025 168.03033203 40.755 167.28332031 40.5 166.51367188 C39.99883365 165.00103698 39.49883877 163.48801346 39 161.97460938 C37.57720124 157.68768706 36.06745077 153.44891519 34.46435547 149.22631836 C33.3409172 146.21653278 32.3263443 143.17318106 31.3125 140.125 C30.92191406 138.95582031 30.53132813 137.78664063 30.12890625 136.58203125 C28.6860906 132.16589639 27.33152222 127.72337906 25.97045898 123.28149414 C24.51981085 118.55456988 23.04867161 113.83404564 21.578125 109.11328125 C21.14899559 107.73566368 21.14899559 107.73566368 20.7111969 106.33021545 C20.11413312 104.41350066 19.51706164 102.49678826 18.91998291 100.58007812 C17.98712774 97.583653 17.05559738 94.58681916 16.12451172 91.58984375 C15.5022952 89.58723444 14.88006225 87.58463023 14.2578125 85.58203125 C13.95394623 84.604086 13.65007996 83.62614075 13.33700562 82.61856079 C11.79052285 77.64526592 10.23749652 72.67418909 8.66894531 67.70780945 C8.08145089 65.8465105 7.49719088 63.98419157 6.91308594 62.12182617 C6.24232023 59.98348441 5.56625419 57.84679482 4.88378906 55.7121582 C4.5947168 54.7862085 4.30564453 53.86025879 4.0078125 52.90625 C3.63873779 51.74125977 3.63873779 51.74125977 3.26220703 50.55273438 C2.69630162 48.07763996 2.66009717 45.84318082 2.75 43.3125 C2.09 43.3125 1.43 43.3125 0.75 43.3125 C0.75523682 43.99425293 0.76047363 44.67600586 0.76586914 45.37841797 C0.91285529 67.67937944 0.4991039 89.88386145 -1.50146484 112.10571289 C-2.12710154 119.39149187 -2.43036076 126.66571981 -2.6875 133.97265625 C-3.24093187 149.50164053 -4.17461574 165.00322463 -5.11462402 180.51251221 C-5.47418128 186.45525764 -5.828617 192.39831263 -6.1836853 198.34132767 C-6.26903253 199.76898544 -6.35450056 201.19663599 -6.44009399 202.62427902 C-7.09307087 213.51790488 -7.70640321 224.41284797 -8.25 235.3125 C-17.57721904 238.69413412 -17.57721904 238.69413412 -22.765625 238.67578125 C-23.70664063 238.67513672 -24.64765625 238.67449219 -25.6171875 238.67382812 C-26.56851563 238.65771484 -27.51984375 238.64160156 -28.5 238.625 C-29.95019531 238.62983398 -29.95019531 238.62983398 -31.4296875 238.63476562 C-40.0416858 238.56952321 -40.0416858 238.56952321 -44.25 236.3125 C-44.27716824 233.77076023 -44.29691969 231.22931585 -44.3125 228.6875 C-44.32087891 227.97464844 -44.32925781 227.26179687 -44.33789062 226.52734375 C-44.34111328 225.82480469 -44.34433594 225.12226562 -44.34765625 224.3984375 C-44.35551147 223.4401001 -44.35551147 223.4401001 -44.36352539 222.46240234 C-44.21771719 219.70113988 -43.70667911 217.03881409 -43.25 214.3125 C-43.08994326 212.44232809 -42.95990242 210.56941355 -42.85546875 208.6953125 C-42.75576782 206.98855347 -42.75576782 206.98855347 -42.65405273 205.24731445 C-42.58259033 203.99007568 -42.51112793 202.73283691 -42.4375 201.4375 C-41.54895048 186.43609554 -40.51947554 171.44485053 -39.4581604 156.45477295 C-39.27786433 153.90363139 -39.09880551 151.35240208 -38.92098999 148.80108643 C-38.66802981 145.17574606 -38.41078291 141.55073465 -38.15234375 137.92578125 C-38.07634949 136.82807907 -38.00035522 135.73037689 -37.92205811 134.59941101 C-37.84844055 133.5808754 -37.774823 132.56233978 -37.69897461 131.51293945 C-37.63616806 130.62572708 -37.57336151 129.73851471 -37.50865173 128.82441711 C-37.24580086 126.27171969 -36.76953649 123.8239338 -36.25 121.3125 C-36.06292139 119.20833893 -35.91125807 117.10088153 -35.78515625 114.9921875 C-35.66817383 113.10113281 -35.66817383 113.10113281 -35.54882812 111.171875 C-35.47083984 109.85703125 -35.39285156 108.5421875 -35.3125 107.1875 C-34.72036174 97.36315392 -34.0524926 87.54871445 -33.3125 77.734375 C-32.55672725 67.6882637 -31.86359716 57.63951869 -31.21484375 47.5859375 C-31.13005264 46.27853607 -31.04526154 44.97113464 -30.957901 43.62411499 C-30.61066879 38.26276714 -30.26399953 32.90139747 -29.92456055 27.53955078 C-29.67209722 23.55468805 -29.41232135 19.57031726 -29.15234375 15.5859375 C-29.07628403 14.3633725 -29.0002243 13.1408075 -28.92185974 11.88119507 C-28.84830765 10.76717316 -28.77475555 9.65315125 -28.69897461 8.50537109 C-28.63616806 7.52313568 -28.57336151 6.54090027 -28.50865173 5.52890015 C-28.25 3.3125 -28.25 3.3125 -27.25 2.3125 C-18.20832508 0.37047559 -9.21672529 -0.02504545 0 0 Z " fill="#FAFBFC" transform="translate(262.25,447.6875)"/>
<path d="M0 0 C0.83015625 0.19335938 1.6603125 0.38671875 2.515625 0.5859375 C15.96289268 3.92606528 26.47509538 12.3471489 36 22 C36.67804688 22.67933594 37.35609375 23.35867188 38.0546875 24.05859375 C55.34126798 42.53602755 59.21820636 67.3229493 59.375 91.5625 C59.38705475 92.60094559 59.38705475 92.60094559 59.39935303 93.66036987 C59.52327765 107.75710884 57.80129893 121.22778025 52.25 134.3125 C51.89929443 135.1586084 51.54858887 136.0047168 51.18725586 136.87646484 C42.89861465 156.34944046 28.77334088 171.03230872 9 179 C-11.89085502 186.92628233 -36.54254998 187.10008317 -57.1328125 178.26953125 C-77.20705285 169.13723463 -90.46371698 153.77206322 -98.8125 133.625 C-101.49168886 126.25497542 -102.83040206 118.73673234 -104 111 C-104.185625 109.77796875 -104.37125 108.5559375 -104.5625 107.296875 C-107.88397499 79.57869551 -103.65183876 50.03127964 -86.625 27.25 C-85.43865821 25.81486689 -84.22979195 24.39807927 -83 23 C-82.35675781 22.26265625 -81.71351563 21.5253125 -81.05078125 20.765625 C-69.2686341 8.13411789 -54.65917624 1.5013262 -38 -2 C-37.37319336 -2.17345947 -36.74638672 -2.34691895 -36.10058594 -2.52563477 C-24.65389105 -5.1105869 -11.03425883 -3.33521383 0 0 Z " fill="#FAFBFC" transform="translate(963,503)"/>
<path d="M0 0 C1.85050209 -0.01018158 1.85050209 -0.01018158 3.73838806 -0.02056885 C7.07436923 -0.03468268 10.41020734 -0.04273321 13.74620819 -0.04525757 C15.12650365 -0.04633598 16.50679876 -0.04806547 17.88709259 -0.05044556 C44.80113679 -0.09590463 71.54251663 1.10006487 98.37890625 3.203125 C98.04890625 4.193125 97.71890625 5.183125 97.37890625 6.203125 C96.33718262 6.32373291 96.33718262 6.32373291 95.27441406 6.44677734 C92.05888112 6.82083785 88.84390033 7.19946205 85.62890625 7.578125 C84.53707031 7.70445312 83.44523437 7.83078125 82.3203125 7.9609375 C72.63549231 9.10707007 63.06875906 10.54117778 53.56347656 12.734375 C48.85431485 13.74483438 44.07283496 14.36602833 39.30859375 15.05859375 C35.82656758 15.58428926 32.546053 16.1526963 29.16796875 17.171875 C25.65657883 18.12755226 22.34734736 18.66611788 18.74609375 19.1484375 C11.88606426 20.08249998 5.23242089 21.46249267 -1.49609375 23.078125 C-2.73206299 23.37130615 -3.96803223 23.6644873 -5.24145508 23.96655273 C-9.70502969 25.03029179 -14.16321922 26.11578367 -18.62109375 27.203125 C-19.54569397 27.4282074 -20.47029419 27.65328979 -21.4229126 27.88519287 C-27.66511548 29.40603451 -33.90433085 30.93857787 -40.14093018 32.48223877 C-42.22167123 32.99682116 -44.30283636 33.50969237 -46.38446045 34.02069092 C-57.36983623 36.72212204 -68.23394217 39.58924213 -78.9937439 43.08976746 C-83.71264982 44.62149018 -88.42966322 45.98836195 -93.234375 47.2265625 C-101.55528149 49.39006503 -109.66733974 52.07824761 -117.80859375 54.828125 C-118.58966492 55.09079163 -119.37073608 55.35345825 -120.17547607 55.62408447 C-125.66218338 57.46967524 -131.1427936 59.3327481 -136.62109375 61.203125 C-137.2739032 61.42524658 -137.92671265 61.64736816 -138.5993042 61.8762207 C-170.41895758 72.70782147 -201.18993417 85.97856122 -231.62109375 100.203125 C-232.23895752 100.49143188 -232.85682129 100.77973877 -233.4934082 101.07678223 C-248.55192848 108.10962963 -263.32866497 115.51636548 -277.82714844 123.64208984 C-280.75335349 125.27702126 -283.69021753 126.89153253 -286.62890625 128.50390625 C-301.92433713 136.93263937 -316.8439333 145.8979534 -331.62109375 155.203125 C-332.40887207 155.69876953 -333.19665039 156.19441406 -334.00830078 156.70507812 C-356.12721978 170.6833902 -377.83068081 185.53990259 -398.74609375 201.265625 C-399.72328369 201.99845703 -399.72328369 201.99845703 -400.72021484 202.74609375 C-404.09565072 205.28292769 -407.44903498 207.84413013 -410.78125 210.4375 C-412.12350736 211.46379094 -413.46594859 212.48984145 -414.80859375 213.515625 C-415.42041504 214.00232666 -416.03223633 214.48902832 -416.66259766 214.99047852 C-420.97177287 218.25269354 -420.97177287 218.25269354 -423.96850586 218.02392578 C-427.087143 217.05891353 -429.49589015 215.68103048 -432.26953125 213.95703125 C-433.35041016 213.28913574 -434.43128906 212.62124023 -435.54492188 211.93310547 C-436.69551018 211.21092683 -437.84589711 210.48842727 -438.99609375 209.765625 C-440.17488753 209.03232458 -441.35392515 208.29941601 -442.53320312 207.56689453 C-449.391724 203.29356864 -456.1827866 198.9275196 -462.87084961 194.39135742 C-467.6760388 191.13349426 -472.59754287 188.11087445 -477.62109375 185.203125 C-476.21647455 180.98926741 -473.15192123 179.34331498 -469.68359375 176.828125 C-468.97138672 176.30355713 -468.25917969 175.77898926 -467.52539062 175.23852539 C-465.22973725 173.55199936 -462.92598352 171.87700001 -460.62109375 170.203125 C-459.11973703 169.10554348 -457.61843445 168.0078879 -456.1171875 166.91015625 C-433.66568726 150.54848194 -410.57328529 135.28251511 -386.62109375 121.203125 C-385.83911621 120.74196289 -385.05713867 120.28080078 -384.25146484 119.80566406 C-371.53094145 112.317376 -358.63281807 105.17199353 -345.62109375 98.203125 C-344.72471191 97.72262695 -343.82833008 97.24212891 -342.90478516 96.74707031 C-301.58646355 74.68773143 -258.7593908 55.35209708 -214.12744141 41.01171875 C-209.59671178 39.55002222 -205.08298512 38.03657475 -200.57373047 36.51000977 C-180.47692014 29.73881584 -160.12812899 23.90625619 -139.55859375 18.765625 C-138.72786346 18.55670624 -137.89713318 18.34778748 -137.04122925 18.13253784 C-122.53064962 14.49711803 -108.03964381 11.5549654 -93.19140625 9.6640625 C-86.34134463 8.77970006 -79.51789462 7.72511847 -72.72045898 6.50024414 C-61.50469805 4.48793191 -50.35695487 3.36828961 -38.99609375 2.578125 C-36.48865368 2.3967708 -33.98140783 2.2130305 -31.47427368 2.02749634 C-29.93621552 1.91438219 -28.39795651 1.80394994 -26.85946655 1.6968689 C-23.50357634 1.4564232 -20.21617983 1.14597872 -16.88110352 0.67529297 C-11.27410583 -0.05086508 -5.6454383 0.02128032 0 0 Z " fill="#46A220" transform="translate(1039.62109375,737.796875)"/>
<path d="M0 0 C1.10907715 -0.01305176 2.2181543 -0.02610352 3.36083984 -0.03955078 C9.77206617 -0.0462883 15.50357988 0.51693922 21.6875 2.1875 C22.56019531 2.36410156 23.43289063 2.54070312 24.33203125 2.72265625 C34.76698824 5.26088903 44.85623195 13.19452139 50.6875 22.1875 C56.43422559 33.32094749 59.00162829 43.79865646 58.94287109 56.25195312 C58.94830177 57.67845436 58.94830177 57.67845436 58.95384216 59.1337738 C58.96068816 61.18035428 58.9632507 63.22695283 58.96189499 65.27354431 C58.96092211 68.52009228 58.97396068 71.76631606 58.99087524 75.01281738 C59.03692472 84.2368728 59.06175284 93.46089198 59.06835938 102.68505859 C59.07338792 108.34422349 59.0976993 114.00304556 59.13368607 119.66209412 C59.14344607 121.80852699 59.14583691 123.95500722 59.14051437 126.10145569 C59.1334033 129.10902333 59.15080725 132.1155751 59.17333984 135.12304688 C59.16516739 135.99710678 59.15699493 136.87116669 59.14857483 137.77171326 C59.24980788 145.41571071 60.99036263 152.49036263 66.5 158 C67.221875 158.721875 67.94375 159.44375 68.6875 160.1875 C68.40615056 164.41495568 66.60922146 167.26615459 64.3125 170.75 C63.70664062 171.67941406 63.10078125 172.60882812 62.4765625 173.56640625 C61.88617187 174.43136719 61.29578125 175.29632812 60.6875 176.1875 C60.22601562 176.950625 59.76453125 177.71375 59.2890625 178.5 C57.6875 180.1875 57.6875 180.1875 55.234375 180.68359375 C46.82277777 180.50737314 40.68256084 178.7653254 34.33203125 173.07421875 C31.1905021 169.4700416 27.6875 164.0979021 27.6875 159.1875 C27.0275 159.1875 26.3675 159.1875 25.6875 159.1875 C25.3575 160.1775 25.0275 161.1675 24.6875 162.1875 C13.38550292 172.79254059 -1.64224778 181.29427621 -17.3125 182.1875 C-17.95687012 182.22842773 -18.60124023 182.26935547 -19.26513672 182.31152344 C-35.49209584 183.22200897 -47.71761808 179.69205443 -60.0625 168.75 C-73.25990945 153.71961702 -75.36880775 138.51044431 -74.10546875 118.98828125 C-72.55138348 106.19696407 -65.84582756 94.71249484 -56.3125 86.1875 C-40.63767992 74.00128317 -23.03053239 71.82414067 -3.75 71.9375 C-2.43064453 71.92976562 -1.11128906 71.92203125 0.24804688 71.9140625 C8.25998353 71.92993558 15.83736305 72.57126826 23.6875 74.1875 C23.63507979 70.37392951 23.53987969 66.56253056 23.4375 62.75 C23.42332031 61.68072266 23.40914062 60.61144531 23.39453125 59.50976562 C23.14296452 51.28353358 21.63832645 45.00621658 16.5625 38.4375 C6.1793456 30.31155308 -3.52616626 30.11032333 -16.3125 31.1875 C-20.51106718 31.76257647 -24.29965691 32.83895997 -28.3125 34.1875 C-30.06354008 34.75081508 -31.8148707 35.31322739 -33.56640625 35.875 C-37.30031251 37.08777887 -41.03008251 38.3113247 -44.75 39.56640625 C-45.53246094 39.8301001 -46.31492187 40.09379395 -47.12109375 40.36547852 C-49.3399348 41.14942946 -49.3399348 41.14942946 -51.4453125 42.28491211 C-53.3125 43.1875 -53.3125 43.1875 -55.75 43.25 C-60.31224785 41.35833626 -62.32683962 37.34731357 -64.29296875 33.0390625 C-66.13967624 28.09716921 -68.10693642 22.3465047 -66.3125 17.1875 C-60.29874063 11.37156166 -51.02132669 8.95832346 -43.3125 6.1875 C-41.87432346 5.62673201 -40.43670732 5.06452154 -39 4.5 C-26.26297948 -0.03351578 -13.38125952 0.09184504 0 0 Z " fill="#FAFBFC" transform="translate(536.3125,504.8125)"/>
<path d="M0 0 C14.55034054 10.9513944 24.52571186 28.27598728 27.11425781 46.34814453 C27.71547689 52.61353689 27.75069411 58.89821582 27.76171875 65.1875 C27.76389404 65.86185089 27.76606934 66.53620178 27.76831055 67.23098755 C27.76545051 75.06261038 27.11367704 81.41618769 25.38671875 89.1875 C-7.94328125 89.1875 -41.27328125 89.1875 -75.61328125 89.1875 C-72.929406 113.52940337 -72.929406 113.52940337 -59.6171875 132.8984375 C-49.01442733 140.6473353 -36.89304907 141.497847 -24.23046875 139.56640625 C-14.51621885 137.86058802 -5.76138347 134.96034091 3.15673828 130.7421875 C8.74844142 128.15413161 8.74844142 128.15413161 12.30078125 128.33984375 C17.97719202 130.64655 20.00903238 137.26908827 22.43359375 142.46875 C23.43955315 145.33820796 23.85288459 147.1822181 23.38671875 150.1875 C17.73606867 156.97425962 8.271021 160.61506474 0.38671875 164.1875 C-0.49628906 164.59097656 -1.37929688 164.99445313 -2.2890625 165.41015625 C-22.3429197 173.61258929 -48.31381269 174.37486337 -68.47558594 166.45605469 C-83.03820025 160.34021825 -92.4642841 151.31827273 -100.61328125 138.1875 C-101.10570312 137.45015625 -101.598125 136.7128125 -102.10546875 135.953125 C-111.60509849 120.73011586 -112.98724624 101.09755488 -112.98388672 83.66333008 C-112.9882326 81.15310329 -113.02459406 78.64468021 -113.0625 76.13476562 C-113.24054005 50.53085135 -105.99219198 25.42474431 -88.015625 6.46484375 C-64.08657165 -16.21912064 -27.02168121 -18.74149489 0 0 Z " fill="#FAFBFC" transform="translate(817.61328125,515.8125)"/>
<path d="M0 0 C1.87881866 0.00090637 1.87881866 0.00090637 3.79559326 0.00183105 C30.31044074 0.03661353 56.16546261 1.50409598 82.41796875 5.28515625 C87.50238686 6.010343 92.5752677 6.55190805 97.69213867 6.98364258 C108.60973541 7.94801297 119.34530236 10.71454805 130 13.1875 C130.91410645 13.39890625 131.82821289 13.6103125 132.77001953 13.828125 C161.49226521 20.50523432 189.7252032 28.44366287 217.84896851 37.27355957 C221.68365429 38.4760183 225.52464534 39.63172473 229.390625 40.73046875 C234.04994536 42.11161907 238.45412583 43.99524816 242.91943359 45.90234375 C247.98300667 48.0147743 253.15257642 49.8263907 258.3125 51.6875 C282.73450096 60.63307537 306.4929129 71.07255386 330 82.1875 C330.98500488 82.64914551 331.97000977 83.11079102 332.98486328 83.58642578 C356.87054079 94.78567243 380.50258503 106.69198104 403.5 119.625 C404.43666504 120.1502124 405.37333008 120.6754248 406.33837891 121.21655273 C413.14645017 125.10604696 413.14645017 125.10604696 416 128.1875 C409.23861611 133.51956585 402.47130814 138.83972039 395.625 144.0625 C389.78032872 148.52750831 384.07004565 153.15088018 378.37939453 157.81005859 C377.12442166 158.83702636 375.86526603 159.85891398 374.60107422 160.87451172 C373.31002097 161.933262 372.06967169 163.05366774 370.84765625 164.19140625 C370.23792969 164.52011719 369.62820313 164.84882812 369 165.1875 C365.22479416 163.97486056 362.09218197 162.10210598 358.78125 159.94921875 C357.27546387 158.9761377 357.27546387 158.9761377 355.73925781 157.98339844 C354.1358252 156.93974121 354.1358252 156.93974121 352.5 155.875 C350.23601005 154.41282263 347.96957401 152.95445569 345.703125 151.49609375 C345.13446716 151.12972809 344.56580933 150.76336243 343.97991943 150.38589478 C328.60372158 140.48719556 312.97727236 131.0828923 297 122.1875 C296.09507812 121.68283203 295.19015625 121.17816406 294.2578125 120.65820312 C256.11409129 99.47615066 216.7441843 81.72051049 176 66.1875 C175.37154175 65.94729126 174.7430835 65.70708252 174.09558105 65.45959473 C138.44003975 51.84532151 102.03196978 40.72101561 65.19238281 30.80859375 C63.22475133 30.27911736 61.25745252 29.7484028 59.29052734 29.21630859 C48.48723521 26.29966107 37.69625739 23.56599065 26.7141571 21.40156555 C21.09625545 20.28375545 21.09625545 20.28375545 20 19.1875 C18.67218122 18.98145915 17.33704105 18.8212041 16 18.6875 C12.11111111 18.29861111 12.11111111 18.29861111 11 17.1875 C7.29907472 16.52594543 3.59370797 15.94418469 -0.12304688 15.38085938 C-4.61586188 14.67185423 -8.68205143 13.64850452 -13 12.1875 C-15.30511 11.80640259 -17.61878844 11.47445657 -19.9375 11.1875 C-23.51680245 10.74355551 -26.83356246 10.23640582 -30.296875 9.21875 C-35.80135207 7.68585765 -41.39847235 7.06497547 -47.05664062 6.33203125 C-47.92095703 6.21214844 -48.78527344 6.09226562 -49.67578125 5.96875 C-50.45864502 5.86626953 -51.24150879 5.76378906 -52.0480957 5.65820312 C-54 5.1875 -54 5.1875 -56 3.1875 C-53.79251633 2.86905348 -51.58394145 2.55817208 -49.375 2.25 C-47.53035156 1.98896484 -47.53035156 1.98896484 -45.6484375 1.72265625 C-30.46359503 -0.11880182 -15.2735227 -0.01351484 0 0 Z " fill="#47A220" transform="translate(172,740.8125)"/>
<path d="M0 0 C1.89878906 -0.02126953 1.89878906 -0.02126953 3.8359375 -0.04296875 C7.625 0.1875 7.625 0.1875 14.625 2.1875 C14.625 18.3575 14.625 34.5275 14.625 51.1875 C28.155 51.1875 41.685 51.1875 55.625 51.1875 C56.41002413 55.89764477 56.78846577 59.95756432 56.8125 64.6875 C56.82667969 65.9559375 56.84085938 67.224375 56.85546875 68.53125 C56.625 72.1875 56.625 72.1875 54.625 78.1875 C41.425 78.1875 28.225 78.1875 14.625 78.1875 C14.68795731 92.00054203 14.76340132 105.81336188 14.86071491 119.62620544 C14.90540667 126.04034159 14.94466571 132.45441438 14.97143555 138.86865234 C14.99748002 145.06090236 15.03789124 151.25290846 15.08818626 157.44500732 C15.1048471 159.80520591 15.11636623 162.16544668 15.12261391 164.5256958 C15.13226318 167.83639992 15.16033373 171.1464811 15.19262695 174.45703125 C15.19119186 175.42879807 15.18975677 176.40056488 15.1882782 177.40177917 C15.27765157 183.89771594 15.86224564 190.13561144 20.41894531 195.16918945 C23.37378704 196.53313864 25.67184923 196.52645968 28.921875 196.48046875 C30.72978516 196.4659668 30.72978516 196.4659668 32.57421875 196.45117188 C33.82847656 196.42603516 35.08273437 196.40089844 36.375 196.375 C37.64472656 196.36146484 38.91445313 196.34792969 40.22265625 196.33398438 C43.35719844 196.2986324 46.49088545 196.24928248 49.625 196.1875 C52.36517314 201.64621334 53.04542002 205.80911225 52.875 211.875 C52.86984375 212.62072266 52.8646875 213.36644531 52.859375 214.13476562 C52.80932997 217.6410454 52.55975119 220.8142471 51.625 224.1875 C32.79559242 228.91066607 10.64645249 232.43294709 -6.8984375 221.94140625 C-15.19082168 216.06872408 -18.76952975 208.51107286 -20.91331482 198.73190308 C-21.56406536 193.73602641 -21.50539699 188.79888185 -21.48852539 183.76611328 C-21.48867142 182.62406937 -21.48881744 181.48202545 -21.4889679 180.30537415 C-21.48827256 176.53950078 -21.48049784 172.7736772 -21.47265625 169.0078125 C-21.47079073 166.39321927 -21.46936746 163.77862569 -21.46836853 161.16403198 C-21.46526557 154.99122016 -21.45706618 148.81842613 -21.44701904 142.64562213 C-21.43582571 135.61538949 -21.43033935 128.58515597 -21.42532361 121.55491662 C-21.41488267 107.09910061 -21.3965501 92.64330384 -21.375 78.1875 C-29.295 78.1875 -37.215 78.1875 -45.375 78.1875 C-47.02658868 74.0585283 -47.62658066 72.49976309 -47.60546875 68.39453125 C-47.60353516 67.51732422 -47.60160156 66.64011719 -47.59960938 65.73632812 C-47.58736328 64.83333984 -47.57511719 63.93035156 -47.5625 63 C-47.56185547 62.08541016 -47.56121094 61.17082031 -47.56054688 60.22851562 C-47.51564837 53.46879675 -47.51564837 53.46879675 -46.375 51.1875 C-38.125 51.1875 -29.875 51.1875 -21.375 51.1875 C-21.42140625 48.29742187 -21.4678125 45.40734375 -21.515625 42.4296875 C-21.54685104 39.61980952 -21.57112146 36.80995112 -21.59472656 34 C-21.61479906 32.05232034 -21.64206332 30.10470063 -21.67675781 28.15722656 C-21.72546852 25.35206279 -21.74801241 22.54769813 -21.765625 19.7421875 C-21.78627014 18.87633026 -21.80691528 18.01047302 -21.82818604 17.11837769 C-21.83020354 11.6399862 -21.04334779 8.52503928 -17.375 4.1875 C-11.95039986 0.15382297 -6.60243696 0.03348092 0 0 Z " fill="#FBFBFD" transform="translate(649.375,457.8125)"/>
<path d="M0 0 C0.969375 0.7425 1.93875 1.485 2.9375 2.25 C3.56398438 2.68570313 4.19046875 3.12140625 4.8359375 3.5703125 C14.91788056 11.25731123 19.85856904 25.09117412 21.64453125 37.31445312 C22.29175498 43.79963494 22.34442917 50.30073113 22.375 56.8125 C22.38453201 57.85067368 22.38453201 57.85067368 22.39425659 58.90982056 C22.50319519 78.0295342 19.65585676 97.70567977 6.1640625 112.1484375 C-2.36475515 120.39876315 -11.75175453 121.83065065 -23.203125 121.72729492 C-29.21453182 121.51388998 -33.96929159 120.60662247 -39.0625 117.25 C-40.609375 116.38375 -40.609375 116.38375 -42.1875 115.5 C-55.48442275 105.09371263 -59.98854224 89.40151418 -62.0625 73.25 C-63.71906325 50.77729037 -63.48724935 24.36902871 -48.0625 6.25 C-34.977469 -6.47776053 -16.06669563 -9.18096893 0 0 Z " fill="#04419E" transform="translate(960.0625,535.75)"/>
<path d="M0 0 C1.0725 0.0721875 2.145 0.144375 3.25 0.21875 C9.43525903 0.95829184 14.92221039 2.96998766 20.625 5.375 C21.32512207 5.66705322 22.02524414 5.95910645 22.74658203 6.26000977 C25.42734181 7.46288089 27.64456859 8.62297696 29.671875 10.7734375 C30.20916411 14.41932789 28.3369428 17.15339757 26.625 20.25 C26.28210938 20.8996875 25.93921875 21.549375 25.5859375 22.21875 C24.73816328 23.82010131 23.87091321 25.41111444 23 27 C19.32103332 25.8073972 15.74645719 24.51093373 12.1875 23 C1.65562934 18.78095465 -9.08817167 17.18086009 -20 21 C-22.89450857 22.89814178 -25.42356115 24.84712229 -27 28 C-27.39550885 32.72328837 -27.5987671 37.31596752 -26 41.8125 C-19.63812567 48.77080005 -11.82309001 52.03379929 -3.1875 55.4375 C9.24077291 60.343966 24.06640876 66.20361357 30.1484375 79.0546875 C32.37321268 84.28575734 32.73083872 89.11153381 32.6875 94.75 C32.67879883 96.19644897 32.67879883 96.19644897 32.66992188 97.67211914 C32.32607601 108.12696321 28.83187286 115.62177249 21.25 123 C7.50624177 133.7548244 -9.06138313 134.37993696 -25.69921875 132.60546875 C-34.20231767 130.95179205 -48.63732552 126.2980758 -54 119 C-54 113.58079666 -51.30198256 108.22760571 -48 104 C-46.16796875 103.0390625 -46.16796875 103.0390625 -44 103 C-41.4765625 104.29296875 -41.4765625 104.29296875 -38.625 106.1875 C-27.9220552 112.68200534 -16.50888812 115.50837993 -4 114 C1.80238954 112.4521443 5.72875661 110.17946871 9 105 C10.37077168 102.25845664 10.35798927 99.9353312 10.5 96.875 C10.5721875 95.77929688 10.644375 94.68359375 10.71875 93.5546875 C9.65820606 88.30960606 7.06614913 85.39188557 3 82 C-0.51145495 79.95355704 -4.15407536 78.46961278 -7.9375 77 C-9.99080278 76.15138206 -12.04288287 75.2997999 -14.09375 74.4453125 C-15.09664063 74.03313477 -16.09953125 73.62095703 -17.1328125 73.19628906 C-29.33177241 68.10646417 -40.33382672 63.15349449 -47 51.125 C-50.5143635 42.44741068 -50.87873602 31.8830428 -47.7734375 23.01171875 C-42.94542626 12.36034798 -36.18578812 6.45961793 -25.5 2 C-17.03790053 -0.73773806 -8.80032327 -0.6237777 0 0 Z " fill="#F7F8FB" transform="translate(493,325)"/>
<path d="M0 0 C0.79607666 -0.00563965 1.59215332 -0.0112793 2.41235352 -0.01708984 C12.28301643 0.10394707 20.29422557 2.57301859 27.5625 9.4375 C32.79620952 18.03573707 33.88041017 26.33808008 33.78125 36.2421875 C33.78829956 37.43554718 33.79534912 38.62890686 33.8026123 39.85842896 C33.82450319 43.63500898 33.82166891 47.41087566 33.8125 51.1875 C33.80046784 56.18527763 33.81408437 61.18200273 33.84375 66.1796875 C33.83243042 67.32243134 33.82111084 68.46517517 33.80944824 69.64254761 C33.76435769 75.88447295 33.76435769 75.88447295 36.33789062 81.41845703 C36.98951172 82.04349121 37.64113281 82.66852539 38.3125 83.3125 C38.40437089 86.8954649 37.15679262 88.5625755 35.25 91.625 C31.86173508 94.72490195 31.86173508 94.72490195 28.25 94.8125 C22.46107143 94.07739796 22.46107143 94.07739796 20.3125 92.3125 C18.80064132 90.03946247 17.57359473 87.74461127 16.3125 85.3125 C15.59964844 85.78300781 14.88679687 86.25351562 14.15234375 86.73828125 C13.19457031 87.36089844 12.23679687 87.98351562 11.25 88.625 C9.84041016 89.54732422 9.84041016 89.54732422 8.40234375 90.48828125 C2.38322325 94.04192129 -2.61926358 95.83266618 -9.625 95.6875 C-10.32794189 95.67807373 -11.03088379 95.66864746 -11.75512695 95.65893555 C-18.47956723 95.46310836 -23.00483434 94.48418172 -28.3125 90.1875 C-29.09625 89.23875 -29.88 88.29 -30.6875 87.3125 C-31.22761719 86.75433594 -31.76773438 86.19617188 -32.32421875 85.62109375 C-38.0970699 78.74480719 -37.66783297 70.8998847 -36.93408203 62.37255859 C-35.96696319 54.29280729 -32.53733418 49.46686096 -26.58984375 44.1015625 C-17.50934209 38.5041604 -8.9868138 37.76853002 1.5 38.0625 C2.73814453 38.08054687 3.97628906 38.09859375 5.25195312 38.1171875 C8.27297365 38.16384419 11.2923031 38.22929017 14.3125 38.3125 C14.22489411 36.24923023 14.11670727 34.1868284 14 32.125 C13.94199219 30.97644531 13.88398437 29.82789063 13.82421875 28.64453125 C13.19542697 24.55018478 11.96645147 21.57593515 8.625 19.0234375 C5.20898494 17.97324368 1.8538925 17.930855 -1.6875 17.9375 C-2.44063477 17.93693604 -3.19376953 17.93637207 -3.96972656 17.93579102 C-9.79474852 18.0491448 -14.73546276 19.17304516 -20.171875 21.33984375 C-22.67267076 22.30676633 -25.04963037 22.86178486 -27.6875 23.3125 C-32.61057692 17.28173077 -32.61057692 17.28173077 -33 12.375 C-32.896875 11.364375 -32.79375 10.35375 -32.6875 9.3125 C-21.66544575 3.3686697 -12.52638435 0.08443398 0 0 Z " fill="#F6F8FB" transform="translate(566.6875,360.6875)"/>
<path d="M0 0 C6.07227652 5.38753045 8.56095993 12.38726643 9.427948 20.33889771 C9.6748756 24.61182217 9.71012411 28.88509538 9.73828125 33.1640625 C9.76092947 34.73540556 9.78484209 36.30673085 9.80995178 37.8780365 C9.85795439 41.14646231 9.8926372 44.41466603 9.91723633 47.68334961 C9.94962657 51.87706634 10.0130822 56.0696391 10.08592892 60.26282597 C10.13921552 63.49596875 10.17777004 66.7291536 10.21164131 69.96255302 C10.22936061 71.51000836 10.25135821 73.05742079 10.27769279 74.60475349 C10.31182564 76.75628737 10.32648132 78.90707261 10.33569336 81.05883789 C10.34805527 82.28252579 10.36041718 83.50621368 10.37315369 84.76698303 C10.25774734 85.71141769 10.142341 86.65585236 10.0234375 87.62890625 C6.49107658 89.98381353 4.77623382 89.9563433 0.5859375 90.00390625 C-1.11369141 90.04644531 -1.11369141 90.04644531 -2.84765625 90.08984375 C-6.69317433 89.52333797 -7.60973614 88.65525131 -9.9765625 85.62890625 C-10.48208618 82.8412323 -10.48208618 82.8412323 -10.49072266 79.59448242 C-10.5039859 78.37609177 -10.51724915 77.15770111 -10.53091431 75.90238953 C-10.52586884 74.58881973 -10.52082336 73.27524994 -10.515625 71.921875 C-10.5255375 70.55429008 -10.53748086 69.1867185 -10.55136108 67.81916809 C-10.58371869 64.2198622 -10.59411314 60.62086034 -10.59820557 57.02142334 C-10.60695905 51.27165621 -10.6426996 45.52213922 -10.6903801 39.77257729 C-10.70288655 37.77250886 -10.70162891 35.77236952 -10.70010376 33.77226257 C-10.67462115 24.99238264 -10.67462115 24.99238264 -12.9765625 16.62890625 C-17.51222178 14.08451202 -22.88439705 13.92862543 -27.9765625 14.62890625 C-33.52831891 16.4997167 -37.58865702 19.86784441 -41.9765625 23.62890625 C-42.6365625 23.62890625 -43.2965625 23.62890625 -43.9765625 23.62890625 C-43.9765625 45.07890625 -43.9765625 66.52890625 -43.9765625 88.62890625 C-47.35424724 89.75480116 -49.98468322 89.761849 -53.5390625 89.75390625 C-54.69535156 89.75648438 -55.85164062 89.7590625 -57.04296875 89.76171875 C-59.9765625 89.62890625 -59.9765625 89.62890625 -61.9765625 88.62890625 C-61.9765625 58.59890625 -61.9765625 28.56890625 -61.9765625 -2.37109375 C-57.6865625 -2.37109375 -53.3965625 -2.37109375 -48.9765625 -2.37109375 C-44.9765625 1.62890625 -44.9765625 1.62890625 -44.7265625 4.87890625 C-44.8090625 5.78640625 -44.8915625 6.69390625 -44.9765625 7.62890625 C-44.25210938 7.08621094 -43.52765625 6.54351562 -42.78125 5.984375 C-41.81445312 5.26894531 -40.84765625 4.55351562 -39.8515625 3.81640625 C-38.90023437 3.10871094 -37.94890625 2.40101563 -36.96875 1.671875 C-26.40537947 -5.5404524 -11.032688 -7.65310966 0 0 Z " fill="#F8F9FB" transform="translate(673.9765625,365.37109375)"/>
<path d="M0 0 C1.31742188 -0.00257813 2.63484375 -0.00515625 3.9921875 -0.0078125 C11.37787396 0.10443198 18.7548953 0.66006596 26.125 1.125 C26.34920446 5.9444377 26.51155807 10.76078085 26.61938477 15.58422852 C26.66436684 17.22083454 26.72558066 18.85708454 26.80395508 20.49243164 C27.43375833 33.98174696 27.43375833 33.98174696 24.29248047 39.12597656 C22.03217504 41.44270665 19.7928387 43.29978199 17.125 45.125 C16.073125 45.88554688 15.02125 46.64609375 13.9375 47.4296875 C11.02579138 49.05539148 8.10873858 50.63514948 5.125 52.125 C4.05185547 52.66833984 4.05185547 52.66833984 2.95703125 53.22265625 C-4.70675068 56.40972223 -15.75266816 56.90318091 -23.609375 54.17578125 C-29.27027168 50.80265296 -33.18043357 45.95600281 -35.33203125 39.69140625 C-37.27419906 30.51151954 -36.9665558 21.14293172 -31.875 13.125 C-31.215 12.073125 -30.555 11.02125 -29.875 9.9375 C-22.24976541 1.45975471 -10.72247334 -0.06138821 0 0 Z " fill="#06419E" transform="translate(533.875,601.875)"/>
<path d="M0 0 C0.77279297 -0.01160156 1.54558594 -0.02320313 2.34179688 -0.03515625 C10.95457556 0.00852648 17.87343606 3.38720644 24.0625 9.375 C33.00100567 21.21248049 34.0625 32.86612374 34.0625 47.375 C11.2925 47.375 -11.4775 47.375 -34.9375 47.375 C-34.9375 34.51382661 -34.9375 34.51382661 -32.8125 28.25 C-32.5865918 27.56550781 -32.36068359 26.88101563 -32.12792969 26.17578125 C-28.42088054 15.48568603 -21.83327405 7.68856885 -12.21484375 1.671875 C-8.01318291 0.00923924 -4.4729698 -0.06681615 0 0 Z " fill="#08429F" transform="translate(776.9375,531.625)"/>
<path d="M0 0 C20 0 20 0 26 3 C30.15790469 7.6074079 31.36573422 10.45775342 31.27734375 16.546875 C30.82019464 20.59039105 29.43790009 23.75454551 27 27 C21.98823522 30.81848745 17.04308281 30.24498984 11 30 C11 35.94 11 41.88 11 48 C7.37 48 3.74 48 0 48 C0 32.16 0 16.32 0 0 Z " fill="#0E45A0" transform="translate(796,902)"/>
<path d="M0 0 C3.3 0 6.6 0 10 0 C10 15.84 10 31.68 10 48 C7.03 48 4.06 48 1 48 C0.67 47.34 0.34 46.68 0 46 C-0.515625 46.495 -1.03125 46.99 -1.5625 47.5 C-4.9238388 49.56851618 -7.11959911 49.48505011 -11 49 C-14.40827668 46.51287918 -15.75321874 43.96945316 -17 40 C-17.30966282 37.03754681 -17.32471901 34.10155047 -17.3125 31.125 C-17.32861328 30.34769531 -17.34472656 29.57039062 -17.36132812 28.76953125 C-17.36640447 22.72868135 -16.46907524 17.63935629 -12.1875 13.0625 C-9.23619306 11.62900806 -7.2442787 11.59446516 -4 12 C-2.68 12.99 -1.36 13.98 0 15 C0 10.05 0 5.1 0 0 Z " fill="#0B439D" transform="translate(1002,902)"/>
<path d="M0 0 C4.14082455 1.78808333 6.43189313 4.3312759 9 8 C11.12421437 14.3726431 11.21300624 23.35052434 9.09375 29.7265625 C6.60397144 33.98791426 3.83121955 36.60637898 -1 38 C-5.46882785 38.17400746 -8.93431604 37.57917606 -12.875 35.4375 C-18.14897301 29.38794272 -18.55422477 22.87971645 -18.34765625 15.12890625 C-17.67948623 9.1153761 -15.69007477 5.5364316 -11.25 1.5 C-6.97501218 -0.4730713 -4.68745782 -0.52082865 0 0 Z " fill="#F5F7FA" transform="translate(1103,854)"/>
<path d="M0 0 C3.3125 1.8125 3.3125 1.8125 6 4 C6.86625 4.680625 6.86625 4.680625 7.75 5.375 C11.509291 10.2620783 11.47798645 16.12474993 11 22 C10.24815135 27.24414434 8.80744519 31.19255481 5 35 C0.52825482 37.70406813 -3.91410152 37.7713211 -9 37 C-13.16010939 35.06265176 -15.95662036 31.51317063 -17.52734375 27.21484375 C-19.07926786 19.94260433 -19.18649408 12.08727866 -15.2578125 5.58984375 C-11.16899338 0.42167797 -6.32179927 -1.27445454 0 0 Z " fill="#0E449E" transform="translate(847,914)"/>
<path d="M0 0 C4.11863031 2.0071806 5.71869822 3.9833283 7.45239258 8.36694336 C8.43285467 11.66411944 8.5268949 14.9322592 8.4765625 18.33984375 C8.46737793 19.39594849 8.46737793 19.39594849 8.45800781 20.47338867 C8.29161238 25.97019794 7.54864609 29.14784113 4.0390625 33.33984375 C0.09456942 36.91720869 -3.10419055 36.91125965 -8.265625 36.74609375 C-12.68497701 36.07998852 -14.08638459 34.78930724 -16.9609375 31.33984375 C-20.64430999 25.25243806 -20.78808833 18.25445295 -19.9609375 11.33984375 C-18.64767007 6.76937631 -16.72089516 4.03071435 -13.2109375 0.83984375 C-8.58891311 -1.29339828 -4.76515118 -1.60420428 0 0 Z " fill="#0E429C" transform="translate(1100.9609375,914.66015625)"/>
<path d="M0 0 C1.39702148 0.00966797 1.39702148 0.00966797 2.82226562 0.01953125 C3.78197266 0.03628906 4.74167969 0.05304688 5.73046875 0.0703125 C6.70951172 0.07933594 7.68855469 0.08835937 8.69726562 0.09765625 C11.10441936 0.12114068 13.51106618 0.1539841 15.91796875 0.1953125 C16.10788003 3.2399219 16.24598442 6.27262616 16.35546875 9.3203125 C16.41412109 10.17625 16.47277344 11.0321875 16.53320312 11.9140625 C16.70203424 18.18493241 16.70203424 18.18493241 14.46484375 21.06787109 C8.48980169 26.27373796 2.11901649 29.96699348 -5.96875 29.58984375 C-9.34255325 28.95998399 -11.507847 27.39278686 -14.08203125 25.1953125 C-17.3520728 20.29025018 -16.87367198 14.91577728 -16.08203125 9.1953125 C-12.78463419 2.5894903 -7.25295331 -0.08899329 0 0 Z " fill="#06409C" transform="translate(565.08203125,411.8046875)"/>
<path d="M0 0 C3.19293544 1.44864277 5.12678474 3.01618534 7 6 C8.00786519 11.12489228 7.98149719 16.1785104 7.9375 21.375 C7.95062064 22.79300146 7.96686636 24.21097765 7.98632812 25.62890625 C8.02701497 29.0863848 8.0250834 32.54230104 8 36 C5.03 36 2.06 36 -1 36 C-1 35.01 -1 34.02 -1 33 C-1.825 33.66 -2.65 34.32 -3.5 35 C-7.42748674 37.62143414 -10.35776099 37.53271595 -15 37 C-17 35.625 -17 35.625 -18 34 C-18 33.34 -18 32.68 -18 32 C-18.66 32 -19.32 32 -20 32 C-20.4727782 27.27221797 -20.50686317 23.95941957 -18.25 19.6875 C-14.31458113 15.56850474 -8.328695 14.44478174 -3 13 C-3.33 11.68 -3.66 10.36 -4 9 C-5.32 9 -6.64 9 -8 9 C-8.33 9.99 -8.66 10.98 -9 12 C-11.97 11.67 -14.94 11.34 -18 11 C-18.4375 8.875 -18.4375 8.875 -18 6 C-13.68067879 -0.14783386 -7.15509643 -2.00499955 0 0 Z " fill="#083E9A" transform="translate(972,914)"/>
<path d="M0 0 C4.53874019 0.71664319 5.73876875 1.99079212 8.5625 5.5625 C9.13012695 8.97583008 9.13012695 8.97583008 9.05078125 12.83203125 C9.04370651 13.51303391 9.03663177 14.19403656 9.02934265 14.89567566 C9.00150069 17.05659995 8.93879527 19.21486822 8.875 21.375 C8.84990332 22.84566552 8.82709253 24.31637193 8.80664062 25.78710938 C8.75171188 29.37975957 8.66551647 32.97087028 8.5625 36.5625 C5.2625 36.5625 1.9625 36.5625 -1.4375 36.5625 C-1.7675 27.9825 -2.0975 19.4025 -2.4375 10.5625 C-3.7575 10.5625 -5.0775 10.5625 -6.4375 10.5625 C-7.72355661 13.13461322 -7.64793941 15.13156966 -7.75390625 18.0078125 C-7.79580078 19.08417969 -7.83769531 20.16054688 -7.88085938 21.26953125 C-7.93983398 22.96142578 -7.93983398 22.96142578 -8 24.6875 C-8.04318359 25.82316406 -8.08636719 26.95882812 -8.13085938 28.12890625 C-8.2371604 30.93997768 -8.33919405 33.75113945 -8.4375 36.5625 C-11.4075 36.5625 -14.3775 36.5625 -17.4375 36.5625 C-17.4375 25.3425 -17.4375 14.1225 -17.4375 2.5625 C-14.4675 2.5625 -11.4975 2.5625 -8.4375 2.5625 C-8.1075 3.2225 -7.7775 3.8825 -7.4375 4.5625 C-6.921875 3.9025 -6.40625 3.2425 -5.875 2.5625 C-3.4375 0.5625 -3.4375 0.5625 0 0 Z " fill="#0D44A0" transform="translate(1132.4375,913.4375)"/>
<path d="M0 0 C9.9 0 19.8 0 30 0 C30 3.3 30 6.6 30 10 C26.7 10 23.4 10 20 10 C20 22.21 20 34.42 20 47 C16.37 47 12.74 47 9 47 C9 34.46 9 21.92 9 9 C6.03 9 3.06 9 0 9 C0 6.03 0 3.06 0 0 Z " fill="#0F45A0" transform="translate(900,903)"/>
<path d="M0 0 C4.1030761 1.57810619 6.92051317 3.05991969 9 7 C9.6875 10.75 9.6875 10.75 10 14 C7.03 14 4.06 14 1 14 C0.34 12.02 -0.32 10.04 -1 8 C-2.97536745 8.34786708 -2.97536745 8.34786708 -5 9 C-6.51714839 12.03429677 -6.14363916 15.17601667 -6.125 18.5 C-6.12886719 19.18964844 -6.13273437 19.87929688 -6.13671875 20.58984375 C-6.19040866 24.42166214 -6.19040866 24.42166214 -5 28 C-3.68 28 -2.36 28 -1 28 C-0.34 26.35 0.32 24.7 1 23 C3.97 23 6.94 23 10 23 C8.25153374 32.90797546 8.25153374 32.90797546 4 36 C-0.34746992 37.44915664 -4.46108101 37.64634206 -9 37 C-11.9375 34.8125 -11.9375 34.8125 -14 32 C-14.52851562 31.29101562 -15.05703125 30.58203125 -15.6015625 29.8515625 C-17.48687368 26.00721288 -17.47787277 22.78695968 -17.4375 18.5625 C-17.45748047 17.82451172 -17.47746094 17.08652344 -17.49804688 16.32617188 C-17.49339918 11.09751796 -16.41441097 8.15316534 -13 4 C-8.62840367 0.30842977 -5.69599218 -0.71199902 0 0 Z " fill="#0C439F" transform="translate(1051,914)"/>
<path d="M0 0 C3.58552881 1.63687185 4.79315055 2.68972583 7 6 C7.22705078 8.91088867 7.22705078 8.91088867 7.1953125 12.41796875 C7.18886719 13.67158203 7.18242188 14.92519531 7.17578125 16.21679688 C7.15902344 17.52712891 7.14226563 18.83746094 7.125 20.1875 C7.11496639 21.52277987 7.1058412 22.85806689 7.09765625 24.19335938 C7.07405292 27.46242015 7.04112594 30.73112028 7 34 C7.66 34 8.32 34 9 34 C9 34.99 9 35.98 9 37 C6.625 37.1875 6.625 37.1875 4 37 C3.34 36.01 2.68 35.02 2 34 C1.566875 34.474375 1.13375 34.94875 0.6875 35.4375 C-1.83055502 37.76903243 -4.00390248 38.00043361 -7.375 38.375 C-11 38 -11 38 -13.9375 36.1875 C-16.95489795 31.52424863 -17.09764873 27.39880562 -16 22 C-11.59457811 16.12610415 -4.93348727 15.37996591 2 14 C1.87625 12.700625 1.7525 11.40125 1.625 10.0625 C1.55539062 9.33160156 1.48578125 8.60070312 1.4140625 7.84765625 C1.27742187 7.23792969 1.14078125 6.62820313 1 6 C-1.73905345 4.63047327 -3.97087332 4.87378639 -7 5 C-7.99 5.495 -7.99 5.495 -9 6 C-9.33 6.99 -9.66 7.98 -10 9 C-11.65 9 -13.3 9 -15 9 C-14.79570164 5.3226295 -14.22067989 4.19915015 -11.4375 1.6875 C-7.02494118 -0.47866524 -4.87429954 -0.54158884 0 0 Z " fill="#0C409D" transform="translate(991,854)"/>
<path d="M0 0 C4.12159384 1.86638212 6.15914497 3.70242865 7.875 7.8125 C9.31760585 11.83355654 9 14.30899653 9 19 C2.07 19 -4.86 19 -12 19 C-11.61794966 27.46114913 -11.61794966 27.46114913 -7 33 C-3.52212326 33.57964612 -1.75762811 33.43000514 1.3125 31.6875 C3.24689917 30.00465847 3.24689917 30.00465847 4 27 C5.32 27.33 6.64 27.66 8 28 C7.78931408 31.68700366 6.9954447 33.00512471 4.5 35.8125 C1.20462788 38.29390731 -1.67129393 38.78893751 -5.75 38.5546875 C-9.74033487 37.57095911 -12.49726686 35.19601102 -15 32 C-18.37248795 25.50316703 -18.20694855 16.37111098 -16.27734375 9.3828125 C-12.95762994 2.25953995 -8.13302608 -1.53092256 0 0 Z " fill="#0F3E9A" transform="translate(1071,854)"/>
<path d="M0 0 C0 3.96 0 7.92 0 12 C-1.7015625 12.2165625 -1.7015625 12.2165625 -3.4375 12.4375 C-6.80777201 12.61171478 -6.80777201 12.61171478 -8 14 C-8.15714654 15.63256758 -8.25085414 17.27135338 -8.31640625 18.91015625 C-8.35830078 19.89951172 -8.40019531 20.88886719 -8.44335938 21.90820312 C-8.48267578 22.94912109 -8.52199219 23.99003906 -8.5625 25.0625 C-8.60568359 26.10728516 -8.64886719 27.15207031 -8.69335938 28.22851562 C-8.79981105 30.81883972 -8.90044308 33.40940175 -9 36 C-12.3 36 -15.6 36 -19 36 C-19 24.45 -19 12.9 -19 1 C-15.7 1 -12.4 1 -9 1 C-8.67 1.66 -8.34 2.32 -8 3 C-7.13375 2.2575 -7.13375 2.2575 -6.25 1.5 C-4 0 -4 0 0 0 Z " fill="#1045A0" transform="translate(950,914)"/>
<path d="M0 0 C0 3.96 0 7.92 0 12 C-1.134375 12.12375 -2.26875 12.2475 -3.4375 12.375 C-5.2009375 12.684375 -5.2009375 12.684375 -7 13 C-8.20270964 15.40541929 -8.20316663 17.10366591 -8.31640625 19.7890625 C-8.37924805 21.20058594 -8.37924805 21.20058594 -8.44335938 22.640625 C-8.50233398 24.11789062 -8.50233398 24.11789062 -8.5625 25.625 C-8.60568359 26.61757813 -8.64886719 27.61015625 -8.69335938 28.6328125 C-8.79960947 31.08837033 -8.90032455 33.54416651 -9 36 C-12.3 36 -15.6 36 -19 36 C-19 24.45 -19 12.9 -19 1 C-15.7 1 -12.4 1 -9 1 C-8.67 1.99 -8.34 2.98 -8 4 C-7.4225 3.34 -6.845 2.68 -6.25 2 C-4 0 -4 0 0 0 Z " fill="#174BA2" transform="translate(881,914)"/>
<path d="M0 0 C4.14082455 1.78808333 6.43189313 4.3312759 9 8 C11.12421437 14.3726431 11.21300624 23.35052434 9.09375 29.7265625 C6.60397144 33.98791426 3.83121955 36.60637898 -1 38 C-5.46882785 38.17400746 -8.93431604 37.57917606 -12.875 35.4375 C-18.14897301 29.38794272 -18.55422477 22.87971645 -18.34765625 15.12890625 C-17.67948623 9.1153761 -15.69007477 5.5364316 -11.25 1.5 C-6.97501218 -0.4730713 -4.68745782 -0.52082865 0 0 Z M-12 9 C-13.54958148 12.09916296 -13.26681073 15.35071849 -13.3125 18.75 C-13.34150391 19.45382812 -13.37050781 20.15765625 -13.40039062 20.8828125 C-13.46264141 26.03526184 -12.38258227 28.90826783 -9 33 C-6.14675563 34.42662219 -4.16545451 34.31033868 -1 34 C2.09725201 32.16980563 3.64084479 30.68410516 5.3125 27.5 C6.51731057 21.36641894 7.7419595 13.90415922 4.1875 8.375 C1.607186 5.57351623 -0.06927202 4.14163252 -3.875 3.5625 C-8.02610555 4.14365478 -9.36573506 5.83888207 -12 9 Z " fill="#1342A3" transform="translate(1103,854)"/>
<path d="M0 0 C3.63 0 7.26 0 11 0 C11 11.55 11 23.1 11 35 C7.37 35 3.74 35 0 35 C0 23.45 0 11.9 0 0 Z " fill="#1C4C9F" transform="translate(1018,915)"/>
<path d="M0 0 C3.3 0 6.6 0 10 0 C10 11.55 10 23.1 10 35 C6.7 35 3.4 35 0 35 C0 23.45 0 11.9 0 0 Z " fill="#0943A0" transform="translate(1066,915)"/>
<path d="M0 0 C3.0625 2.25 3.0625 2.25 5 5 C5 6.32 5 7.64 5 9 C3.68 9 2.36 9 1 9 C0.319375 8.01 0.319375 8.01 -0.375 7 C-0.91125 6.34 -1.4475 5.68 -2 5 C-5.12623255 4.68099668 -7.17116253 4.58558126 -10 6 C-10 8.31 -10 10.62 -10 13 C-9.01257812 13.47050781 -8.02515625 13.94101562 -7.0078125 14.42578125 C-5.713334 15.05425994 -4.41907447 15.68318981 -3.125 16.3125 C-2.47402344 16.62123047 -1.82304688 16.92996094 -1.15234375 17.24804688 C2.19676398 18.88807385 3.89005879 19.83508818 6 23 C6.34342312 27.25844672 6.43989287 29.93499621 4.8125 33.875 C1.76901858 37.4432196 -0.915261 37.9031483 -5.5 38.3125 C-10.25073138 37.88832755 -12.64916742 36.44088809 -15.875 33 C-16.24625 32.34 -16.6175 31.68 -17 31 C-16.505 29.515 -16.505 29.515 -16 28 C-14.68 28 -13.36 28 -12 28 C-11.566875 28.825 -11.13375 29.65 -10.6875 30.5 C-10.130625 31.325 -9.57375 32.15 -9 33 C-4.60907888 33.54886514 -2.71499122 33.47666082 1 31 C1.66680368 28.04279372 1.66680368 28.04279372 1 25 C-1.18014191 23.2286347 -3.42713566 22.25863974 -5.97265625 21.109375 C-10.36484005 19.04053329 -13.50172351 17.37198386 -16 13 C-16.59521377 9.89166141 -16.65512336 8.03949464 -14.94140625 5.3203125 C-10.55549986 -0.11977317 -6.77089094 -1.05065549 0 0 Z " fill="#17439F" transform="translate(1135,854)"/>
<path d="M0 0 C1.65 0 3.3 0 5 0 C5 15.18 5 30.36 5 46 C11.27 46 17.54 46 24 46 C24 47.32 24 48.64 24 50 C16.08 50 8.16 50 0 50 C0 33.5 0 17 0 0 Z " fill="#1D4DA3" transform="translate(947,841)"/>
<path d="M0 0 C3.60962691 1.6407395 6.084861 3.48891184 8 7 C7.6875 9.25 7.6875 9.25 7 11 C6.01 11 5.02 11 4 11 C3.1028125 9.515 3.1028125 9.515 2.1875 8 C0.30488797 4.71353005 0.30488797 4.71353005 -3 4.375 C-6.61244805 5.12759334 -7.80314541 6.07086055 -10 9 C-12.17795679 15.43290547 -11.75917369 23.32056345 -9.9375 29.75 C-8.07697392 32.3028717 -8.07697392 32.3028717 -4.5625 33.125 C-0.9746649 33.34297333 -0.9746649 33.34297333 1.375 31.1875 C3.01912519 29.10705832 3.01912519 29.10705832 4 27 C5.32 27 6.64 27 8 27 C7.81037036 31.07703716 7.21550125 32.75217356 4.5 35.875 C1.18782462 38.32728369 -1.75644519 38.73654054 -5.8203125 38.4765625 C-9.63587202 37.64233623 -11.46550644 35.89656407 -14 33 C-17.70778657 26.66586461 -17.94365569 19.60855106 -16.49609375 12.5390625 C-15.03475495 7.51205702 -13.13295488 4.39114247 -9 1 C-5.93570224 -0.53214888 -3.3834358 -0.22938548 0 0 Z " fill="#18429C" transform="translate(1022,854)"/>
<path d="M0 0 C2.97 0 5.94 0 9 0 C9 1.98 9 3.96 9 6 C9.99 6.33 10.98 6.66 12 7 C11.01 8.485 11.01 8.485 10 10 C9.63250611 12.61289494 9.63250611 12.61289494 9.5859375 15.54296875 C9.52792969 17.15268555 9.52792969 17.15268555 9.46875 18.79492188 C9.42234375 20.47424805 9.42234375 20.47424805 9.375 22.1875 C9.31699219 23.88422852 9.31699219 23.88422852 9.2578125 25.61523438 C9.16347467 28.4099925 9.07788348 31.20474278 9 34 C6.03 34 3.06 34 0 34 C0 22.78 0 11.56 0 0 Z " fill="#063D98" transform="translate(1115,916)"/>
<path d="M0 0 C1.32 0 2.64 0 4 0 C4 3.3 4 6.6 4 10 C6.31 10 8.62 10 11 10 C11 11.32 11 12.64 11 14 C8.69 14 6.38 14 4 14 C4.33 23.24 4.66 32.48 5 42 C6.98 42.33 8.96 42.66 11 43 C11 43.99 11 44.98 11 46 C8.15916359 47.42041821 6.14522722 47.31452272 3 47 C0.82910156 45.40136719 0.82910156 45.40136719 -1 43 C-1.45410156 39.88378906 -1.45410156 39.88378906 -1.390625 36.265625 C-1.37773438 34.97011719 -1.36484375 33.67460938 -1.3515625 32.33984375 C-1.31814366 30.97655176 -1.28428391 29.61327051 -1.25 28.25 C-1.22992707 26.87111936 -1.21167767 25.49221088 -1.1953125 24.11328125 C-1.14815448 20.74148256 -1.08234538 17.37109313 -1 14 C-2.65 14 -4.3 14 -6 14 C-6 12.68 -6 11.36 -6 10 C-4.35 10 -2.7 10 -1 10 C-1.01160156 9.36191406 -1.02320313 8.72382812 -1.03515625 8.06640625 C-1.04417969 7.24011719 -1.05320312 6.41382813 -1.0625 5.5625 C-1.07410156 4.73878906 -1.08570313 3.91507813 -1.09765625 3.06640625 C-1 1 -1 1 0 0 Z " fill="#325FAA" transform="translate(1039,845)"/>
<path d="M0 0 C-0.99 0 -1.98 0 -3 0 C-3.33 1.65 -3.66 3.3 -4 5 C-2.35 5 -0.7 5 1 5 C1.32657437 9.68089936 0.75236233 12.18903678 -2 16 C-2.66 16.66 -3.32 17.32 -4 18 C-3.34 18.33 -2.68 18.66 -2 19 C-2 19.66 -2 20.32 -2 21 C-5.17582631 22.58791315 -8.54161153 22.41019741 -12 22 C-14 20.625 -14 20.625 -15 19 C-15 18.34 -15 17.68 -15 17 C-15.66 17 -16.32 17 -17 17 C-17.48895657 12.1104343 -17.55909621 8.94347486 -15 4.625 C-10.48602871 0.67527512 -5.97676921 -1.93013705 0 0 Z " fill="#11439B" transform="translate(969,929)"/>
<path d="M0 0 C0.66 0.33 1.32 0.66 2 1 C2 3.31 2 5.62 2 8 C-4.93 8 -11.86 8 -19 8 C-18.61794966 16.46114913 -18.61794966 16.46114913 -14 22 C-10.52212326 22.57964612 -8.75762811 22.43000514 -5.6875 20.6875 C-3.75310083 19.00465847 -3.75310083 19.00465847 -3 16 C-1.68 16.33 -0.36 16.66 1 17 C0.78931408 20.68700366 -0.0045553 22.00512471 -2.5 24.8125 C-5.79537212 27.29390731 -8.67129393 27.78893751 -12.75 27.5546875 C-16.74033487 26.57095911 -19.49726686 24.19601102 -22 21 C-24.23922073 16.8023849 -24.24066533 12.83635663 -24.125 8.1875 C-24.11597656 7.49462891 -24.10695313 6.80175781 -24.09765625 6.08789062 C-24.07426157 4.39177605 -24.03839641 2.69584129 -24 1 C-22.68 1.33 -21.36 1.66 -20 2 C-20 2.99 -20 3.98 -20 5 C-14.06 5 -8.12 5 -2 5 C-1.34 3.35 -0.68 1.7 0 0 Z " fill="#1D49A6" transform="translate(1078,865)"/>
<path d="M0 0 C3.3 0 6.6 0 10 0 C10 0.33 10 0.66 10 1 C7.03 1 4.06 1 1 1 C1 12.22 1 23.44 1 35 C3.97 35 6.94 35 10 35 C9.98952637 34.2886792 9.97905273 33.5773584 9.96826172 32.84448242 C9.92671999 29.62552414 9.90067961 26.40662224 9.875 23.1875 C9.85824219 22.06794922 9.84148437 20.94839844 9.82421875 19.79492188 C9.81777344 18.72177734 9.81132813 17.64863281 9.8046875 16.54296875 C9.79421387 15.55321045 9.78374023 14.56345215 9.77294922 13.54370117 C10 11 10 11 12 8 C13.65 8.33 15.3 8.66 17 9 C17 17.58 17 26.16 17 35 C16.67 35 16.34 35 16 35 C15.67 31.37 15.34 27.74 15 24 C14.34 24 13.68 24 13 24 C12.93941406 24.78246094 12.87882812 25.56492187 12.81640625 26.37109375 C12.73261719 27.38300781 12.64882812 28.39492188 12.5625 29.4375 C12.48128906 30.44683594 12.40007812 31.45617187 12.31640625 32.49609375 C12 35 12 35 11 36 C7.37 36 3.74 36 0 36 C0 24.12 0 12.24 0 0 Z " fill="#BDCBE4" transform="translate(1114,915)"/>
<path d="M0 0 C4.12403425 1.78083297 6.55779071 4.24946431 9 8 C10.60658867 13.31410097 9.69563065 18.58478294 9 24 C8.67 24 8.34 24 8 24 C7.90203125 23.19175781 7.8040625 22.38351562 7.703125 21.55078125 C6.71459697 13.43600011 6.71459697 13.43600011 2 7 C-1.49124017 4.67250655 -2.89222251 4.49700684 -7 5 C-10.1644957 7.56580732 -11.82056775 9.52466814 -12.31640625 13.6015625 C-12.39761719 14.59929688 -12.47882813 15.59703125 -12.5625 16.625 C-12.68818359 18.12933594 -12.68818359 18.12933594 -12.81640625 19.6640625 C-12.87699219 20.43492187 -12.93757813 21.20578125 -13 22 C-13.33 22 -13.66 22 -14 22 C-14 19.69 -14 17.38 -14 15 C-14.66 15 -15.32 15 -16 15 C-16.33 18.3 -16.66 21.6 -17 25 C-17.33 25 -17.66 25 -18 25 C-18.81822528 10.09011705 -18.81822528 10.09011705 -14 4 C-9.33923942 -0.23705507 -6.033629 -0.67040322 0 0 Z " fill="#1447A4" transform="translate(1103,854)"/>
<path d="M0 0 C0.77718772 10.01708612 0.77718772 10.01708612 -2.125 13.6875 C-5.45527277 15.20784192 -7.38718583 15.62831551 -11 15 C-13.54742159 12.79223462 -13.9466169 11.32029857 -14.5 8 C-14 5 -14 5 -11.625 2.6875 C-7.43041941 -0.0090161 -5.00801043 -0.09274093 0 0 Z " fill="#EFF2F8" transform="translate(993,873)"/>
<path d="M0 0 C3.0625 2.25 3.0625 2.25 5 5 C5 6.32 5 7.64 5 9 C3.68 9 2.36 9 1 9 C0.319375 8.01 0.319375 8.01 -0.375 7 C-0.91125 6.34 -1.4475 5.68 -2 5 C-5.12623255 4.68099668 -7.17116253 4.58558126 -10 6 C-10 8.31 -10 10.62 -10 13 C-5.545 14.98 -5.545 14.98 -1 17 C-1 17.33 -1 17.66 -1 18 C-2.98 18 -4.96 18 -7 18 C-7 18.66 -7 19.32 -7 20 C-11.40595131 18.6537371 -13.58291088 16.93896005 -16 13 C-16.59521377 9.89166141 -16.65512336 8.03949464 -14.94140625 5.3203125 C-10.55549986 -0.11977317 -6.77089094 -1.05065549 0 0 Z " fill="#2453A7" transform="translate(1135,854)"/>
<path d="M0 0 C3.60962691 1.6407395 6.084861 3.48891184 8 7 C7.6875 9.25 7.6875 9.25 7 11 C6.01 11 5.02 11 4 11 C3.1028125 9.515 3.1028125 9.515 2.1875 8 C0.30488797 4.71353005 0.30488797 4.71353005 -3 4.375 C-6.70230717 5.14631399 -7.80075565 5.9367668 -10 9 C-12.09902304 14.52374485 -12.55304941 20.15435682 -13 26 C-13.33 26 -13.66 26 -14 26 C-16.65537275 11.15665738 -16.65537275 11.15665738 -15 6.8125 C-10.95528305 1.1246168 -6.96283741 -0.88617931 0 0 Z " fill="#1646A2" transform="translate(1022,854)"/>
<path d="M0 0 C3.875 0.875 3.875 0.875 5 2 C5.10024126 4.63575543 5.13875021 7.23954245 5.125 9.875 C5.12886719 10.60847656 5.13273437 11.34195313 5.13671875 12.09765625 C5.13084138 15.32433238 5.0271886 17.91843421 4 21 C1.625 20.6875 1.625 20.6875 -1 20 C-3.36398846 16.45401732 -3.29818374 14.76670901 -3.3125 10.5625 C-3.32925781 9.42941406 -3.34601563 8.29632812 -3.36328125 7.12890625 C-2.97407876 3.77674287 -2.26637371 2.4338103 0 0 Z " fill="#F3F6FA" transform="translate(1094,922)"/>
<path d="M0 0 C3.875 0.875 3.875 0.875 5 2 C5.12685806 4.63746756 5.18520617 7.23709166 5.1875 9.875 C5.19974609 10.60847656 5.21199219 11.34195313 5.22460938 12.09765625 C5.23509566 15.93563514 5.17768617 17.73347074 3 21 C1.68 21 0.36 21 -1 21 C-2.76107362 17.19018735 -3.29661243 14.12652135 -3.3125 9.9375 C-3.32925781 8.91527344 -3.34601562 7.89304687 -3.36328125 6.83984375 C-2.95885552 3.67836517 -2.11659558 2.3288136 0 0 Z " fill="#EBEFF6" transform="translate(842,922)"/>
<path d="M0 0 C3.58630624 3.95413253 4 5.55522765 4 11 C-1.28 11 -6.56 11 -12 11 C-11 4 -11 4 -9.375 1.5625 C-5.98664287 -0.66668232 -3.96705934 -0.70840345 0 0 Z " fill="#F1F4F9" transform="translate(1071,858)"/>
<path d="M0 0 C3.58552881 1.63687185 4.79315055 2.68972583 7 6 C7.22705078 8.8190918 7.22705078 8.8190918 7.1953125 12.19921875 C7.18886719 13.40771484 7.18242188 14.61621094 7.17578125 15.86132812 C7.15902344 17.12396484 7.14226563 18.38660156 7.125 19.6875 C7.11597656 20.96173828 7.10695313 22.23597656 7.09765625 23.54882812 C7.07405641 26.69940627 7.04113194 29.84960983 7 33 C6.67 33 6.34 33 6 33 C5.505 23.595 5.505 23.595 5 14 C4.01 14 3.02 14 2 14 C1.8046875 11.94921875 1.609375 9.8984375 1.4140625 7.84765625 C1.27742187 7.23792969 1.14078125 6.62820313 1 6 C-1.73905345 4.63047327 -3.97087332 4.87378639 -7 5 C-7.99 5.495 -7.99 5.495 -9 6 C-9.33 6.99 -9.66 7.98 -10 9 C-11.65 9 -13.3 9 -15 9 C-14.79570164 5.3226295 -14.22067989 4.19915015 -11.4375 1.6875 C-7.02494118 -0.47866524 -4.87429954 -0.54158884 0 0 Z " fill="#14469F" transform="translate(991,854)"/>
<path d="M0 0 C0.33 0.66 0.66 1.32 1 2 C0.34 2 -0.32 2 -1 2 C-1.309375 2.61875 -1.61875 3.2375 -1.9375 3.875 C-2.625 5.25 -3.3125 6.625 -4 8 C-4.66 8.144375 -5.32 8.28875 -6 8.4375 C-6.66 8.623125 -7.32 8.80875 -8 9 C-8.33 9.99 -8.66 10.98 -9 12 C-11.97 11.67 -14.94 11.34 -18 11 C-18.4375 8.875 -18.4375 8.875 -18 6 C-13.32133284 -0.65930292 -7.57984987 -0.74016617 0 0 Z " fill="#1B4FAA" transform="translate(972,914)"/>
<path d="M0 0 C1.65 0 3.3 0 5 0 C6.50930882 3.01861764 6.18438844 6.12991303 6.1875 9.4375 C6.19974609 10.11876953 6.21199219 10.80003906 6.22460938 11.50195312 C6.23555848 15.22829809 6.12005619 16.81991571 4 20 C2.0625 19.625 2.0625 19.625 0 19 C-1.51714839 15.96570323 -1.14363916 12.82398333 -1.125 9.5 C-1.12886719 8.81035156 -1.13273438 8.12070312 -1.13671875 7.41015625 C-1.12666646 2.25333293 -1.12666646 2.25333293 0 0 Z " fill="#ECF0F7" transform="translate(996,923)"/>
<path d="M0 0 C0.99 0 1.98 0 3 0 C3.03758423 1.16571533 3.03758423 1.16571533 3.07592773 2.35498047 C3.19166796 5.86183069 3.31449352 9.36839745 3.4375 12.875 C3.47681641 14.09832031 3.51613281 15.32164062 3.55664062 16.58203125 C3.59853516 17.74863281 3.64042969 18.91523437 3.68359375 20.1171875 C3.72025146 21.19597168 3.75690918 22.27475586 3.79467773 23.38623047 C3.83376643 25.98069536 3.83376643 25.98069536 5 28 C8.02934491 28.65772428 8.02934491 28.65772428 11 29 C11 29.99 11 30.98 11 32 C8.20129973 33.39935013 6.09501208 33.25265405 3 33 C1.3269043 31.9128418 1.3269043 31.9128418 0 30 C-0.34057617 26.90551758 -0.34057617 26.90551758 -0.29296875 23.14453125 C-0.28872391 22.48289474 -0.28447906 21.82125824 -0.28010559 21.13957214 C-0.26333693 19.0301309 -0.22569099 16.92165154 -0.1875 14.8125 C-0.17245068 13.38087319 -0.1587627 11.94923138 -0.14648438 10.51757812 C-0.1134403 7.01140712 -0.06167167 3.50579746 0 0 Z " fill="#0B3B9D" transform="translate(1039,859)"/>
<path d="M0 0 C0.66 0.33 1.32 0.66 2 1 C2 3.31 2 5.62 2 8 C-5.26 8 -12.52 8 -20 8 C-20 9.65 -20 11.3 -20 13 C-20.66 13 -21.32 13 -22 13 C-22.33 13.66 -22.66 14.32 -23 15 C-23 10.38 -23 5.76 -23 1 C-22.01 1.33 -21.02 1.66 -20 2 C-20 2.99 -20 3.98 -20 5 C-14.06 5 -8.12 5 -2 5 C-1.34 3.35 -0.68 1.7 0 0 Z " fill="#013399" transform="translate(1078,865)"/>
<path d="M0 0 C1.65 0 3.3 0 5 0 C3.40969163 9.79295154 3.40969163 9.79295154 -1 13 C-4.01490557 14.00496852 -6.04181692 14.10335303 -9.1875 14.0625 C-10.08855469 14.05347656 -10.98960938 14.04445313 -11.91796875 14.03515625 C-12.60503906 14.02355469 -13.29210938 14.01195312 -14 14 C-14.33 13.01 -14.66 12.02 -15 11 C-14.34 11 -13.68 11 -13 11 C-12.67 10.01 -12.34 9.02 -12 8 C-10.02 7.67 -8.04 7.34 -6 7 C-5.67 7.66 -5.34 8.32 -5 9 C-3.35 9 -1.7 9 0 9 C0 6.03 0 3.06 0 0 Z " fill="#164499" transform="translate(1056,937)"/>
<path d="M0 0 C6 0 6 0 7.875 1.125 C9.52854531 3.88090884 9.39365568 5.85075452 9 9 C7.875 10.875 7.875 10.875 6 12 C4.02 12 2.04 12 0 12 C0 8.04 0 4.08 0 0 Z " fill="#E2E7F2" transform="translate(807,911)"/>
<path d="M0 0 C3.3 0 6.6 0 10 0 C10 2.97 10 5.94 10 9 C6.7 9 3.4 9 0 9 C0 6.03 0 3.06 0 0 Z " fill="#10429C" transform="translate(1066,902)"/>
<path d="M0 0 C2.97 0 5.94 0 9 0 C9 2.97 9 5.94 9 9 C6.03 9 3.06 9 0 9 C0 6.03 0 3.06 0 0 Z " fill="#154094" transform="translate(1019,902)"/>
<path d="M0 0 C3.3 0 6.6 0 10 0 C10 2 10 2 7.6875 4.4375 C6.800625 5.283125 5.91375 6.12875 5 7 C4.2884375 7.8971875 4.2884375 7.8971875 3.5625 8.8125 C1.15206148 10.64443328 -1.07810726 10.19479285 -4 10 C-2.8741386 6.46157845 -1.66905241 3.33810482 0 0 Z " fill="#2453A6" transform="translate(1095,901)"/>
<path d="M0 0 C0.99 0 1.98 0 3 0 C3.33 8.25 3.66 16.5 4 25 C4.66 25.33 5.32 25.66 6 26 C6 26.99 6 27.98 6 29 C4.35 29 2.7 29 1 29 C1 26.03 1 23.06 1 20 C0.67 20 0.34 20 0 20 C0 16.7 0 13.4 0 10 C-1.32 10 -2.64 10 -4 10 C-4 9.34 -4 8.68 -4 8 C-3.01 7.34 -2.02 6.68 -1 6 C-0.26656572 2.93443402 -0.26656572 2.93443402 0 0 Z " fill="#0037A3" transform="translate(994,862)"/>
<path d="M0 0 C0.33 0.66 0.66 1.32 1 2 C1.99 2 2.98 2 4 2 C3.979375 2.9075 3.95875 3.815 3.9375 4.75 C4.64253844 8.08513491 4.64253844 8.08513491 7.0703125 9.2890625 C9.35701427 10.28546233 11.64125546 11.18992612 14 12 C14 12.33 14 12.66 14 13 C12.02 13 10.04 13 8 13 C8 13.66 8 14.32 8 15 C3.59404869 13.6537371 1.41708912 11.93896005 -1 8 C-1.31033868 4.83454549 -1.42662219 2.85324437 0 0 Z " fill="#2252A8" transform="translate(1120,859)"/>
<path d="M0 0 C-3 2 -3 2 -6.125 3.625 C-9.21723571 6.17945559 -9.42821383 6.5311622 -9.875 10.25 C-9.91625 11.4875 -9.9575 12.725 -10 14 C-11.32 13.67 -12.64 13.34 -14 13 C-14.60550459 5.12844037 -14.60550459 5.12844037 -12.625 1.4375 C-8.55710116 -0.79015889 -4.53831648 -0.31179274 0 0 Z " fill="#0F3C9B" transform="translate(989,872)"/>
<path d="M0 0 C2.54951033 1.34184754 4.58114404 2.4669106 6.375 4.75 C7.29390721 8.05806597 6.74940605 10.69012329 6 14 C2.69005287 15.65497356 -0.99123 15.10084335 -4.625 15.0625 C-5.42679688 15.05798828 -6.22859375 15.05347656 -7.0546875 15.04882812 C-9.03649006 15.03703168 -11.01825433 15.01909605 -13 15 C-13 14.67 -13 14.34 -13 14 C-7.72 14 -2.44 14 3 14 C2.690625 12.4325 2.38125 10.865 2.0625 9.25 C1.88847656 8.36828125 1.71445313 7.4865625 1.53515625 6.578125 C1.07631512 4.36764947 0.56663926 2.18487932 0 0 Z " fill="#3762B5" transform="translate(1072,855)"/>
<path d="M0 0 C1.65 0.33 3.3 0.66 5 1 C5.33 2.32 5.66 3.64 6 5 C1.9811485 6.81242323 -1.61110675 8.33501617 -6 9 C-6 7.35 -6 5.7 -6 4 C-7.32 3.67 -8.64 3.34 -10 3 C-7.03 3.33 -4.06 3.66 -1 4 C-0.67 2.68 -0.34 1.36 0 0 Z " fill="#E2E8F3" transform="translate(964,922)"/>
<path d="M0 0 C0.4125 0.474375 0.825 0.94875 1.25 1.4375 C4.14142532 4.01912975 7.23648185 3.18509106 11 3 C11.33 3.99 11.66 4.98 12 6 C8.33755697 8.34396354 5.27605847 8.52512999 1 8 C-1.9375 5.625 -1.9375 5.625 -4 3 C-4 2.34 -4 1.68 -4 1 C-2.1875 0.3125 -2.1875 0.3125 0 0 Z " fill="#1B4AA7" transform="translate(979,884)"/>
<path d="M0 0 C0.99 0.33 1.98 0.66 3 1 C3 2.32 3 3.64 3 5 C3.66 5.33 4.32 5.66 5 6 C5.391875 6.495 5.78375 6.99 6.1875 7.5 C8.8792664 9.72766874 11.59829452 9.67908439 15 10 C15 10.66 15 11.32 15 12 C11.90826248 13.54586876 9.40570448 13.29359521 6 13 C2.64995486 10.55537246 1.18206454 7.94021515 0 4 C0 2.68 0 1.36 0 0 Z " fill="#1A479D" transform="translate(985,938)"/>
<path d="M0 0 C0.144375 0.61875 0.28875 1.2375 0.4375 1.875 C0.93152225 4.03258322 0.93152225 4.03258322 2 6 C1.67 6.66 1.34 7.32 1 8 C0.7724985 9.87056791 0.59037189 11.74685958 0.4375 13.625 C0.31181641 15.12933594 0.31181641 15.12933594 0.18359375 16.6640625 C0.12300781 17.43492187 0.06242187 18.20578125 0 19 C-0.33 19 -0.66 19 -1 19 C-1 16.69 -1 14.38 -1 12 C-1.66 12 -2.32 12 -3 12 C-3.33 15.3 -3.66 18.6 -4 22 C-4.33 22 -4.66 22 -5 22 C-5.44810509 13.83452941 -5.44220114 7.9998321 -1 1 C-0.67 0.67 -0.34 0.34 0 0 Z " fill="#234E9E" transform="translate(1090,857)"/>
<path d="M0 0 C0.25 5.625 0.25 5.625 -2 9 C-4.5625 9.25 -4.5625 9.25 -7 9 C-8 8 -8 8 -8.3125 5.625 C-8 3 -8 3 -6.25 1.1875 C-4 0 -4 0 0 0 Z " fill="#D7DFEE" transform="translate(970,934)"/>
<path d="M0 0 C0.33 0 0.66 0 1 0 C1.33 2.64 1.66 5.28 2 8 C2.33 6.35 2.66 4.7 3 3 C3.33 3 3.66 3 4 3 C4.24959784 5.0809844 4.47394907 7.16500812 4.6875 9.25 C4.81511719 10.41015625 4.94273437 11.5703125 5.07421875 12.765625 C4.99254989 16.32466794 4.42472438 17.48177725 2 20 C-0.72907382 13.85958391 -1.64979719 8.72290167 -1 2 C-0.67 1.34 -0.34 0.68 0 0 Z " fill="#1D4EAA" transform="translate(1006,867)"/>
<path d="M0 0 C0.33 0.66 0.66 1.32 1 2 C-0.28062485 3.7074998 -1.61767557 5.37373596 -3 7 C-3.66 7 -4.32 7 -5 7 C-5.06058594 7.72574219 -5.12117188 8.45148438 -5.18359375 9.19921875 C-6.2706766 12.92858909 -8.12369908 14.32009922 -11.0625 16.8125 C-11.98160156 17.60269531 -12.90070313 18.39289063 -13.84765625 19.20703125 C-14.55792969 19.79871094 -15.26820313 20.39039063 -16 21 C-16.66 20.67 -17.32 20.34 -18 20 C-17.28714844 19.2265625 -16.57429688 18.453125 -15.83984375 17.65625 C-10.48392711 11.83521182 -5.16442 5.99284232 0 0 Z " fill="#13419E" transform="translate(343,349)"/>
<path d="M0 0 C0.33 0 0.66 0 1 0 C1.33 3.96 1.66 7.92 2 12 C2.66 12 3.32 12 4 12 C4 10.35 4 8.7 4 7 C4.33 7 4.66 7 5 7 C5.07347656 7.90492188 5.07347656 7.90492188 5.1484375 8.828125 C5.22320313 9.62734375 5.29796875 10.4265625 5.375 11.25 C5.44460938 12.03890625 5.51421875 12.8278125 5.5859375 13.640625 C6.01507113 16.085877 6.78600638 17.84836903 8 20 C7.34 20.66 6.68 21.32 6 22 C5.67 21.01 5.34 20.02 5 19 C4.01 19.33 3.02 19.66 2 20 C-0.1103435 15.72115394 -0.24128739 11.86135858 -0.125 7.1875 C-0.11597656 6.49462891 -0.10695313 5.80175781 -0.09765625 5.08789062 C-0.07426157 3.39177605 -0.03839641 1.69584129 0 0 Z " fill="#2658B0" transform="translate(1054,866)"/>
<path d="M0 0 C0.66 0.33 1.32 0.66 2 1 C2 3.31 2 5.62 2 8 C-4.93 7.67 -11.86 7.34 -19 7 C-19 6.34 -19 5.68 -19 5 C-13.39 5 -7.78 5 -2 5 C-1.34 3.35 -0.68 1.7 0 0 Z " fill="#0B40A6" transform="translate(1078,865)"/>
<path d="M0 0 C0.66 0 1.32 0 2 0 C3.46670113 5.22512279 4.22577402 9.5814234 4 15 C3.01 15.495 3.01 15.495 2 16 C1.59270772 18.32156597 1.25561323 20.6568787 1 23 C0.67 23 0.34 23 0 23 C0 15.41 0 7.82 0 0 Z " fill="#2952A4" transform="translate(263,491)"/>
<path d="M0 0 C1.32 0 2.64 0 4 0 C3.69474709 3.35778204 3.23596777 5.62245157 1.4375 8.5 C-1 10 -1 10 -3.04296875 9.796875 C-5.05613201 9.29803809 -7.03238771 8.65587076 -9 8 C-8.4225 7.7525 -7.845 7.505 -7.25 7.25 C-4.04247707 5.46804282 -1.64929455 3.2985891 0 0 Z " fill="#1E49AA" transform="translate(1026,881)"/>
<path d="M0 0 C0.99 0.33 1.98 0.66 3 1 C3.08074203 3.62561109 3.1403623 6.24875676 3.1875 8.875 C3.22520508 9.99455078 3.22520508 9.99455078 3.26367188 11.13671875 C3.29296875 13.3046875 3.29296875 13.3046875 3 17 C2.01 17.66 1.02 18.32 0 19 C0 12.73 0 6.46 0 0 Z " fill="#EAEEF6" transform="translate(982,585)"/>
<path d="M0 0 C0.33 0 0.66 0 1 0 C1.33 1.65 1.66 3.3 2 5 C2.66 4.67 3.32 4.34 4 4 C5.14077657 7.42232972 5.09815117 10.08673217 5.0625 13.6875 C5.05347656 14.86699219 5.04445313 16.04648437 5.03515625 17.26171875 C5.02355469 18.16535156 5.01195312 19.06898438 5 20 C1.24362245 18.54591837 1.24362245 18.54591837 0.25390625 16.328125 C-0.09569252 13.12257324 -0.09235088 9.97389456 -0.0625 6.75 C-0.05347656 5.48671875 -0.04445313 4.2234375 -0.03515625 2.921875 C-0.02355469 1.95765625 -0.01195312 0.9934375 0 0 Z " fill="#3262B3" transform="translate(525,414)"/>
<path d="M0 0 C1.14271055 3.42813165 0.82699932 4.30911099 -0.3125 7.625 C-0.70888672 8.81996094 -0.70888672 8.81996094 -1.11328125 10.0390625 C-2 12 -2 12 -4 13 C-5.38654045 14.00510262 -6.76028466 15.02795772 -8.125 16.0625 C-8.84945312 16.61035156 -9.57390625 17.15820312 -10.3203125 17.72265625 C-11.15175781 18.35494141 -11.15175781 18.35494141 -12 19 C-12.66 18.67 -13.32 18.34 -14 18 C-12.4840625 16.88625 -12.4840625 16.88625 -10.9375 15.75 C-5.87573471 11.47332484 -3.07442361 5.77505712 0 0 Z " fill="#1544A0" transform="translate(524,432)"/>
<path d="M0 0 C2 2 2 2 2.22705078 4.70556641 C2.21657715 5.82624512 2.20610352 6.94692383 2.1953125 8.1015625 C2.18886719 9.31328125 2.18242188 10.525 2.17578125 11.7734375 C2.15902344 13.04445313 2.14226563 14.31546875 2.125 15.625 C2.11597656 16.90375 2.10695313 18.1825 2.09765625 19.5 C2.07402303 22.66685167 2.04107629 25.83333424 2 29 C1.67 29 1.34 29 1 29 C0.67 22.73 0.34 16.46 0 10 C-0.99 10 -1.98 10 -3 10 C-3 7.69 -3 5.38 -3 3 C-2.01 2.67 -1.02 2.34 0 2 C0 1.34 0 0.68 0 0 Z " fill="#305DB1" transform="translate(996,858)"/>
<path d="M0 0 C1.32 0.66 2.64 1.32 4 2 C3.2884375 3.051875 3.2884375 3.051875 2.5625 4.125 C0.91260143 7.16081337 0.39631536 9.59168786 0 13 C-0.99 13 -1.98 13 -3 13 C-4.07763474 8.50985524 -4.37757467 6.66989054 -2.0625 2.5625 C-1.381875 1.716875 -0.70125 0.87125 0 0 Z " fill="#174DAA" transform="translate(1059,857)"/>
<path d="M0 0 C0.33 0.99 0.66 1.98 1 3 C1.66 3.66 2.32 4.32 3 5 C0.37348569 4.71880143 -2.25069335 4.42556162 -4.875 4.125 C-5.62136719 4.04636719 -6.36773437 3.96773437 -7.13671875 3.88671875 C-12.7734375 3.2265625 -12.7734375 3.2265625 -15 1 C-9.92928099 0.28832014 -5.11791642 -0.10662326 0 0 Z " fill="#57AC37" transform="translate(131,743)"/>
<path d="M0 0 C0 0.66 0 1.32 0 2 C-5.01608525 3.0176403 -9.78608306 3.11856434 -14.875 3.0625 C-15.65875 3.05798828 -16.4425 3.05347656 -17.25 3.04882812 C-19.16670014 3.03714093 -21.08336048 3.01920908 -23 3 C-22.67 2.34 -22.34 1.68 -22 1 C-19.12109375 0.5859375 -19.12109375 0.5859375 -15.4375 0.375 C-14.17550781 0.30152344 -12.91351562 0.22804688 -11.61328125 0.15234375 C-7.73062262 -0.01135753 -3.88460741 -0.07769215 0 0 Z " fill="#1C4AA4" transform="translate(796,686)"/>
<path d="M0 0 C1.32 0 2.64 0 4 0 C5.625 2.4375 5.625 2.4375 7 5 C7.66 5.33 8.32 5.66 9 6 C9 6.66 9 7.32 9 8 C7.35 8.33 5.7 8.66 4 9 C-0.00390625 4.60546875 -0.00390625 4.60546875 -1 3 C-0.67 2.01 -0.34 1.02 0 0 Z " fill="#103B93" transform="translate(1119,882)"/>
<path d="M0 0 C2.77493061 0.95687262 3.98858379 1.9854345 5.8125 4.3125 C7.61813502 9.9194719 6.71154828 15.22188508 6 21 C5.67 21 5.34 21 5 21 C4.81824219 19.75283203 4.81824219 19.75283203 4.6328125 18.48046875 C4.46523437 17.39378906 4.29765625 16.30710937 4.125 15.1875 C3.96257812 14.10855469 3.80015625 13.02960937 3.6328125 11.91796875 C3.14867662 8.82678207 3.14867662 8.82678207 1 6 C0.60986284 4.0103005 0.26797351 2.00980131 0 0 Z " fill="#154AA9" transform="translate(1106,857)"/>
<path d="M0 0 C0 3.96 0 7.92 0 12 C-1.98 12 -3.96 12 -6 12 C-6 11.67 -6 11.34 -6 11 C-4.35 11 -2.7 11 -1 11 C-2.485 8.03 -2.485 8.03 -4 5 C-5.32 5 -6.64 5 -8 5 C-5.96115496 0.48541456 -5.19128917 0 0 0 Z " fill="#4670B8" transform="translate(950,914)"/>
<path d="M0 0 C1.98 0 3.96 0 6 0 C5.10085301 1.51056694 4.18003899 3.00825429 3.25 4.5 C2.73953125 5.3353125 2.2290625 6.170625 1.703125 7.03125 C1.14109375 7.6809375 0.5790625 8.330625 0 9 C-1.32 9 -2.64 9 -4 9 C-2.80100302 5.9168649 -1.52299523 2.93720508 0 0 Z " fill="#1540A0" transform="translate(989,841)"/>
<path d="M0 0 C0 0.33 0 0.66 0 1 C-1.11375 1.12375 -1.11375 1.12375 -2.25 1.25 C-5.56604529 2.15437599 -6.83531391 3.3714526 -9 6 C-10.15570704 9.46712111 -10.32835293 12.5414956 -10.5625 16.1875 C-10.64628906 17.45980469 -10.73007813 18.73210938 -10.81640625 20.04296875 C-10.87699219 21.01878906 -10.93757813 21.99460937 -11 23 C-11.33 23 -11.66 23 -12 23 C-12.10871967 20.45716766 -12.18762401 17.91904912 -12.25 15.375 C-12.28351563 14.66214844 -12.31703125 13.94929687 -12.3515625 13.21484375 C-12.44708349 8.00894998 -11.43482241 5.13450845 -8 1 C-5.29120665 -0.35439668 -2.99066732 -0.06501451 0 0 Z " fill="#C8D5E9" transform="translate(1102,858)"/>
<path d="M0 0 C3 0 3 0 6 1 C5.125 8.75 5.125 8.75 4 11 C3.34 11 2.68 11 2 11 C0.80712589 7.12315913 0 4.08378077 0 0 Z " fill="#294C9A" transform="translate(329,594)"/>
<path d="M0 0 C0.99 0.33 1.98 0.66 3 1 C3 1.99 3 2.98 3 4 C2.01 4.495 2.01 4.495 1 5 C0.67 5.99 0.34 6.98 0 8 C-1.65 8 -3.3 8 -5 8 C-4.66275164 4.88045262 -4.3790035 3.3790035 -2.125 1.125 C-1.42375 0.75375 -0.7225 0.3825 0 0 Z " fill="#214CA8" transform="translate(981,855)"/>
<path d="M0 0 C0.33 0.66 0.66 1.32 1 2 C1.66 2 2.32 2 3 2 C3.33 6.29 3.66 10.58 4 15 C3.67 14.01 3.34 13.02 3 12 C2.01 12 1.02 12 0 12 C0 8.04 0 4.08 0 0 Z " fill="#083388" transform="translate(1086,867)"/>
<path d="M0 0 C0.33 0 0.66 0 1 0 C2.51708428 19.96810934 2.51708428 19.96810934 0 29 C-0.33 29 -0.66 29 -1 29 C-1.11237377 19.27342548 -0.92972557 9.69570954 0 0 Z " fill="#476CB5" transform="translate(258,596)"/>
<path d="M0 0 C0 0.99 0 1.98 0 3 C-4.22949995 5.41685712 -7.12335991 6.34833144 -12 6 C-12.33 5.34 -12.66 4.68 -13 4 C-12.14535156 3.79503906 -11.29070312 3.59007812 -10.41015625 3.37890625 C-9.30542969 3.10949219 -8.20070313 2.84007812 -7.0625 2.5625 C-5.40927734 2.16224609 -5.40927734 2.16224609 -3.72265625 1.75390625 C-1.10578746 1.27004275 -1.10578746 1.27004275 0 0 Z " fill="#0C3B9B" transform="translate(1108,886)"/>
<path d="M0 0 C-0.99 0.33 -1.98 0.66 -3 1 C-3 1.66 -3 2.32 -3 3 C-1.68 3 -0.36 3 1 3 C1 6.3 1 9.6 1 13 C0.67 13 0.34 13 0 13 C0 10.03 0 7.06 0 4 C-3.96 3.67 -7.92 3.34 -12 3 C-9.84267191 0.84267191 -8.88177557 0.51705175 -6 -0.1875 C-5.29875 -0.36667969 -4.5975 -0.54585937 -3.875 -0.73046875 C-2 -1 -2 -1 0 0 Z " fill="#4C71B5" transform="translate(993,869)"/>
<path d="M0 0 C0.33 0.99 0.66 1.98 1 3 C1.66 3 2.32 3 3 3 C2.67 4.98 2.34 6.96 2 9 C-0.64 9.33 -3.28 9.66 -6 10 C-5.38125 9.46375 -4.7625 8.9275 -4.125 8.375 C-1.7217098 5.68896977 -0.93977847 3.44585438 0 0 Z " fill="#1E4BA6" transform="translate(1108,878)"/>
<path d="M0 0 C2.97 0 5.94 0 9 0 C9.33 1.65 9.66 3.3 10 5 C3.375 5.25 3.375 5.25 0 3 C0 2.01 0 1.02 0 0 Z " fill="#3FA217" transform="translate(131,743)"/>
<path d="M0 0 C0.33 0 0.66 0 1 0 C1.33 3.96 1.66 7.92 2 12 C-0.97 12 -3.94 12 -7 12 C-7 11.01 -7 10.02 -7 9 C-4.69 9 -2.38 9 0 9 C0 6.03 0 3.06 0 0 Z " fill="#124296" transform="translate(1122,938)"/>
<path d="M0 0 C0.99 0.33 1.98 0.66 3 1 C3.02705729 2.77074917 3.04642195 4.54161711 3.0625 6.3125 C3.07410156 7.29863281 3.08570313 8.28476562 3.09765625 9.30078125 C3 12 3 12 2 15 C1.01 14.67 0.02 14.34 -1 14 C-0.67 9.38 -0.34 4.76 0 0 Z " fill="#144BA9" transform="translate(1002,903)"/>
<path d="M0 0 C2.64 0 5.28 0 8 0 C8 1.98 8 3.96 8 6 C7.34 5.34 6.68 4.68 6 4 C2.91652174 3.83318891 2.91652174 3.83318891 0 4 C0 2.68 0 1.36 0 0 Z " fill="#053C9A" transform="translate(1020,903)"/>
<path d="M0 0 C1.485 0.99 1.485 0.99 3 2 C2.67 6.95 2.34 11.9 2 17 C1.67 17 1.34 17 1 17 C0.63826036 14.54256214 0.28531831 12.08441207 -0.0625 9.625 C-0.16626953 8.92632813 -0.27003906 8.22765625 -0.37695312 7.5078125 C-1.11328125 2.2265625 -1.11328125 2.2265625 0 0 Z " fill="#0439A3" transform="translate(1007,863)"/>
<path d="M0 0 C3.625 0.375 3.625 0.375 7 1 C0.40909091 6 0.40909091 6 -3 6 C-2.42655063 3.13275314 -2.1385485 2.1385485 0 0 Z " fill="#0C43A3" transform="translate(1124,855)"/>
<path d="M0 0 C2.97 0 5.94 0 9 0 C8.67 0.99 8.34 1.98 8 3 C5.89722877 3.22197585 3.79267698 3.42713637 1.6875 3.625 C0.51574219 3.74101563 -0.65601563 3.85703125 -1.86328125 3.9765625 C-5 4 -5 4 -8 2 C-5.36 1.67 -2.72 1.34 0 1 C0 0.67 0 0.34 0 0 Z " fill="#81C36B" transform="translate(1129,741)"/>
<path d="M0 0 C0.66 0 1.32 0 2 0 C2 4.29 2 8.58 2 13 C1.34 12.01 0.68 11.02 0 10 C-0.66 10 -1.32 10 -2 10 C-1.34 6.7 -0.68 3.4 0 0 Z " fill="#1A46A4" transform="translate(398,491)"/>
<path d="M0 0 C0.99 0.33 1.98 0.66 3 1 C2.5206753 5.31392226 1.2542015 7.16569547 -2 10 C-2.99 9.67 -3.98 9.34 -5 9 C-4.67 8.34 -4.34 7.68 -4 7 C-3.34 7 -2.68 7 -2 7 C-1.34 4.69 -0.68 2.38 0 0 Z " fill="#1640A2" transform="translate(1076,881)"/>
<path d="M0 0 C0.99 0.33 1.98 0.66 3 1 C3.33 3.31 3.66 5.62 4 8 C3.13375 7.360625 2.2675 6.72125 1.375 6.0625 C-1.9598812 4.02451704 -4.16047478 3.36566907 -8 3 C-8 2.67 -8 2.34 -8 2 C-5.36 2 -2.72 2 0 2 C0 1.34 0 0.68 0 0 Z " fill="#113F97" transform="translate(1104,855)"/>
<path d="M0 0 C-0.33 0.99 -0.66 1.98 -1 3 C-5.36228979 5.028972 -8.35656242 5.10558038 -13 4 C-8.84541088 1.76291355 -4.76123067 0 0 0 Z " fill="#4EA92D" transform="translate(868,766)"/>
<path d="M0 0 C0.66 0.33 1.32 0.66 2 1 C-4.02818509 5.28670939 -8.71304215 5.474377 -16 5 C-16 4.67 -16 4.34 -16 4 C-15.09636719 3.79503906 -14.19273437 3.59007812 -13.26171875 3.37890625 C-12.08222656 3.10949219 -10.90273438 2.84007812 -9.6875 2.5625 C-8.51574219 2.29566406 -7.34398437 2.02882813 -6.13671875 1.75390625 C-2.99763029 1.04686031 -2.99763029 1.04686031 0 0 Z " fill="#3960AE" transform="translate(812,681)"/>
<path d="M0 0 C0.66 0.66 1.32 1.32 2 2 C1.828125 4.3125 1.828125 4.3125 1.25 7 C0.97929687 8.3303125 0.97929687 8.3303125 0.703125 9.6875 C0 12 0 12 -2 14 C-3.25127906 10.45332822 -2.72285053 8.27746562 -1.5625 4.75 C-1.27503906 3.85796875 -0.98757813 2.9659375 -0.69140625 2.046875 C-0.46324219 1.37140625 -0.23507812 0.6959375 0 0 Z " fill="#1C4DA4" transform="translate(387,528)"/>
<path d="M0 0 C0.66 0.33 1.32 0.66 2 1 C-3.0940919 8.68490153 -3.0940919 8.68490153 -6.875 10 C-7.57625 10 -8.2775 10 -9 10 C-8.06409496 8.8944811 -7.12620142 7.79064547 -6.1875 6.6875 C-5.66542969 6.07261719 -5.14335938 5.45773437 -4.60546875 4.82421875 C-3.12827531 3.14575321 -1.59960869 1.56117966 0 0 Z " fill="#DFE6F3" transform="translate(734,518)"/>
<path d="M0 0 C1.8871875 0.061875 1.8871875 0.061875 3.8125 0.125 C3.8125 0.455 3.8125 0.785 3.8125 1.125 C2.905 1.186875 1.9975 1.24875 1.0625 1.3125 C-2.94742508 2.31498127 -3.83458286 3.84772255 -6.1875 7.125 C-6.8475 7.125 -7.5075 7.125 -8.1875 7.125 C-7.875 4.75 -7.875 4.75 -7.1875 2.125 C-4.09861478 0.06574319 -3.47814073 -0.1140374 0 0 Z " fill="#D6E0F1" transform="translate(386.1875,448.875)"/>
<path d="M0 0 C1.32 0.33 2.64 0.66 4 1 C3.34 1.66 2.68 2.32 2 3 C1.01 3 0.02 3 -1 3 C-1.33 7.62 -1.66 12.24 -2 17 C-2.33 17 -2.66 17 -3 17 C-3.08126087 14.91731407 -3.13930839 12.83371342 -3.1875 10.75 C-3.22230469 9.58984375 -3.25710938 8.4296875 -3.29296875 7.234375 C-2.97982934 3.77731593 -2.34290892 2.48434437 0 0 Z " fill="#ACC1DF" transform="translate(1094,922)"/>
<path d="M0 0 C3.4375 1.5 3.4375 1.5 6 3 C2.59068103 4.13643966 1.99664544 3.86747764 -1.1875 2.5625 C-1.90292969 2.27503906 -2.61835937 1.98757813 -3.35546875 1.69140625 C-3.89816406 1.46324219 -4.44085937 1.23507812 -5 1 C-5.33 1.99 -5.66 2.98 -6 4 C-6.33 3.34 -6.66 2.68 -7 2 C-7.66 1.67 -8.32 1.34 -9 1 C-5.92805092 -0.53597454 -3.39755707 -0.2265038 0 0 Z " fill="#2D58AC" transform="translate(1051,914)"/>
<path d="M0 0 C0.99 0 1.98 0 3 0 C2.71758359 1.46015291 2.42373386 2.91809793 2.125 4.375 C1.96257812 5.18710937 1.80015625 5.99921875 1.6328125 6.8359375 C1 9 1 9 -1 11 C-2.26264601 6.70700357 -1.62950412 4.12168689 0 0 Z " fill="#1B4CA6" transform="translate(354,632)"/>
<path d="M0 0 C0.99 0 1.98 0 3 0 C2.45660208 4.56454251 1.20536179 7.9728176 -1 12 C-1.66 12 -2.32 12 -3 12 C-2.01 8.04 -1.02 4.08 0 0 Z " fill="#1A48A3" transform="translate(381,547)"/>
<path d="M0 0 C0.33 0 0.66 0 1 0 C1 3.96 1 7.92 1 12 C0.01 12.33 -0.98 12.66 -2 13 C-2.05447047 11.58376784 -2.09300508 10.16691809 -2.125 8.75 C-2.14820313 7.96109375 -2.17140625 7.1721875 -2.1953125 6.359375 C-1.9828378 3.79268059 -1.28654105 2.2083933 0 0 Z " fill="#CCD6E9" transform="translate(1111,925)"/>
<path d="M0 0 C0.886875 0.103125 1.77375 0.20625 2.6875 0.3125 C1.42045613 2.84658774 0.25626843 3.24459972 -2.25 4.5 C-2.96027344 4.86480469 -3.67054688 5.22960937 -4.40234375 5.60546875 C-5.03269531 5.83878906 -5.66304687 6.07210937 -6.3125 6.3125 C-6.9725 5.9825 -7.6325 5.6525 -8.3125 5.3125 C-4.12788462 0.38942308 -4.12788462 0.38942308 0 0 Z " fill="#2F58A6" transform="translate(995.3125,913.6875)"/>
<path d="M0 0 C0.66 0.33 1.32 0.66 2 1 C2 3.31 2 5.62 2 8 C-0.64 7.67 -3.28 7.34 -6 7 C-5.195625 6.401875 -4.39125 5.80375 -3.5625 5.1875 C-0.77672016 3.19052724 -0.77672016 3.19052724 0 0 Z " fill="#1B4AA3" transform="translate(1078,865)"/>
<path d="M0 0 C4.29 0 8.58 0 13 0 C12.67 0.99 12.34 1.98 12 3 C10.56344146 3.08131463 9.1255517 3.13933559 7.6875 3.1875 C6.48673828 3.23970703 6.48673828 3.23970703 5.26171875 3.29296875 C3 3 3 3 0 0 Z " fill="#5CAD3C" transform="translate(131,742)"/>
<path d="M0 0 C1.07694171 2.80004844 0.95876997 4.1911574 0.3125 7.1875 C-1 10 -1 10 -3.125 10.875 C-3.74375 10.91625 -4.3625 10.9575 -5 11 C-3.77472971 6.94718288 -2.30119506 3.55639236 0 0 Z " fill="#2B54A9" transform="translate(751,545)"/>
<path d="M0 0 C3 2 3 2 3.73046875 4.1640625 C3.88128906 4.97617187 4.03210938 5.78828125 4.1875 6.625 C4.34605469 7.44226563 4.50460937 8.25953125 4.66796875 9.1015625 C4.83232422 10.04128906 4.83232422 10.04128906 5 11 C4.01 11 3.02 11 2 11 C2 10.34 2 9.68 2 9 C1.34 9 0.68 9 0 9 C0 6.03 0 3.06 0 0 Z " fill="#3961AF" transform="translate(952,937)"/>
<path d="M0 0 C2.55803184 3.83704776 4.34505724 7.75712791 3.625 12.4375 C3.41875 12.953125 3.2125 13.46875 3 14 C0.56574762 9.03006806 -0.34615998 5.65394631 0 0 Z " fill="#3159AA" transform="translate(976,556)"/>
<path d="M0 0 C0.99 0.33 1.98 0.66 3 1 C-0.61328125 5.6875 -0.61328125 5.6875 -2 7 C-2.99 7 -3.98 7 -5 7 C-3.70700306 4.11562221 -2.34058637 2.12780579 0 0 Z " fill="#1749AC" transform="translate(555,414)"/>
<path d="M0 0 C0.66 0.33 1.32 0.66 2 1 C-1.49087093 5.0042343 -3.64951939 6.62671065 -9 7 C-6.25604436 4.05278838 -3.61662784 1.80831392 0 0 Z " fill="#204AA5" transform="translate(414,292)"/>
<path d="M0 0 C1.670625 0.061875 1.670625 0.061875 3.375 0.125 C3.375 0.455 3.375 0.785 3.375 1.125 C1.725 1.125 0.075 1.125 -1.625 1.125 C-1.955 2.115 -2.285 3.105 -2.625 4.125 C-3.285 4.125 -3.945 4.125 -4.625 4.125 C-4.295 5.115 -3.965 6.105 -3.625 7.125 C-4.615 6.795 -5.605 6.465 -6.625 6.125 C-5.71577947 1.57889733 -4.95184304 0.17075321 0 0 Z " fill="#2F5FB5" transform="translate(1132.625,913.875)"/>
<path d="M0 0 C0.33 0 0.66 0 1 0 C1.12375 0.969375 1.2475 1.93875 1.375 2.9375 C1.684375 4.4534375 1.684375 4.4534375 2 6 C2.66 6.33 3.32 6.66 4 7 C4 7.99 4 8.98 4 10 C2.35 10 0.7 10 -1 10 C-0.67 6.7 -0.34 3.4 0 0 Z " fill="#093292" transform="translate(996,881)"/>
<path d="M0 0 C0.99 0.33 1.98 0.66 3 1 C4.6875 4.5625 4.6875 4.5625 6 8 C5.01 8 4.02 8 3 8 C0.19744677 5.0936485 0 4.21174952 0 0 Z " fill="#204CA7" transform="translate(549,430)"/>
<path d="M0 0 C4.2742558 1.5830577 6.26531794 4.50568404 9 8 C8.34 8.66 7.68 9.32 7 10 C2 4.25 2 4.25 2 2 C1.34 2 0.68 2 0 2 C0 1.34 0 0.68 0 0 Z " fill="#1643A0" transform="translate(874,358)"/>
<path d="M0 0 C0.33 0.99 0.66 1.98 1 3 C0.34 3 -0.32 3 -1 3 C-1.2475 3.61875 -1.495 4.2375 -1.75 4.875 C-3.20628639 7.35068687 -4.37812506 7.95125002 -7 9 C-7 6 -7 6 -5.46875 4.39453125 C-4.49421875 3.61142578 -4.49421875 3.61142578 -3.5 2.8125 C-2.8503125 2.28269531 -2.200625 1.75289063 -1.53125 1.20703125 C-1.0259375 0.80871094 -0.520625 0.41039062 0 0 Z " fill="#1949A4" transform="translate(370,324)"/>
<path d="M0 0 C0.99 0 1.98 0 3 0 C3 2.97 3 5.94 3 9 C2.01 9 1.02 9 0 9 C0 6.03 0 3.06 0 0 Z " fill="#CDD6E9" transform="translate(982,929)"/>
<path d="M0 0 C2.12508244 3.18762365 2.5020163 5.26512223 3 9 C1.68 9 0.36 9 -1 9 C-2.0326802 6.21176345 -2.04509293 5.1322726 -1.0625 2.25 C-0.711875 1.5075 -0.36125 0.765 0 0 Z " fill="#1C4B9F" transform="translate(267,502)"/>
<path d="M0 0 C0 0.99 0 1.98 0 3 C-3.96 4.98 -3.96 4.98 -8 7 C-8.66 6.34 -9.32 5.68 -10 5 C-6.7 3.35 -3.4 1.7 0 0 Z " fill="#2453AB" transform="translate(548,676)"/>
<path d="M0 0 C0.125 3.375 0.125 3.375 0 7 C-0.66 7.66 -1.32 8.32 -2 9 C-3 8 -3 8 -3.0625 4.4375 C-3.041875 3.303125 -3.02125 2.16875 -3 1 C-1 0 -1 0 0 0 Z " fill="#E0E4EE" transform="translate(537,369)"/>
<path d="M0 0 C0.99 0.33 1.98 0.66 3 1 C3 2.32 3 3.64 3 5 C3.66 5.33 4.32 5.66 5 6 C4.01 6.99 3.02 7.98 2 9 C0.50178941 5.62902617 0 3.79557881 0 0 Z " fill="#164CAA" transform="translate(985,938)"/>
<path d="M0 0 C1.32 0.33 2.64 0.66 4 1 C2.37660195 2.70884005 0.70680947 4.37446717 -1 6 C-1.66 6 -2.32 6 -3 6 C-3 5.34 -3 4.68 -3 4 C-2.34 4 -1.68 4 -1 4 C-0.67 2.68 -0.34 1.36 0 0 Z " fill="#17479C" transform="translate(821,925)"/>
<path d="M0 0 C0.33 0.66 0.66 1.32 1 2 C1.66 2.33 2.32 2.66 3 3 C-3.75 4.125 -3.75 4.125 -6 3 C-6 2.34 -6 1.68 -6 1 C-4.02 0.67 -2.04 0.34 0 0 Z " fill="#ECF0F7" transform="translate(1097,910)"/>
<path d="M0 0 C0.66 0.99 1.32 1.98 2 3 C-3.0940919 8.88183807 -3.0940919 8.88183807 -6.875 9.375 C-7.57625 9.25125 -8.2775 9.1275 -9 9 C-8.01 8.34 -7.02 7.68 -6 7 C-2.55621587 3.83866694 -2.55621587 3.83866694 0 0 Z " fill="#C6D2E8" transform="translate(1111,883)"/>
<path d="M0 0 C1.32 0 2.64 0 4 0 C4.33 1.32 4.66 2.64 5 4 C3.35 4.33 1.7 4.66 0 5 C-0.5625 3.0625 -0.5625 3.0625 -1 1 C-0.67 0.67 -0.34 0.34 0 0 Z " fill="#2B4F9D" transform="translate(1119,882)"/>
<path d="M0 0 C1.9375 0.6875 1.9375 0.6875 4 2 C4.75 4.625 4.75 4.625 5 7 C3.68 7 2.36 7 1 7 C1.020625 6.21625 1.04125 5.4325 1.0625 4.625 C1.18684063 2.01885039 1.18684063 2.01885039 0 0 Z " fill="#133CA0" transform="translate(1135,856)"/>
<path d="M0 0 C1.11375 0.433125 2.2275 0.86625 3.375 1.3125 C3.705 2.3025 4.035 3.2925 4.375 4.3125 C0.745 3.3225 -2.885 2.3325 -6.625 1.3125 C-3.625 -0.6875 -3.625 -0.6875 0 0 Z " fill="#66AD44" transform="translate(287.625,782.6875)"/>
<path d="M0 0 C3.4375 0.8125 3.4375 0.8125 7 2 C7.33 2.99 7.66 3.98 8 5 C2.25 4.25 2.25 4.25 0 2 C0 1.34 0 0.68 0 0 Z " fill="#224FA6" transform="translate(922,651)"/>
<path d="M0 0 C-1.54705733 3.09411467 -3.88071772 3.71558965 -7 5 C-9.19921875 4.58203125 -9.19921875 4.58203125 -11 4 C-9.73308493 3.32591692 -8.46129251 2.66099503 -7.1875 2 C-6.47980469 1.62875 -5.77210938 1.2575 -5.04296875 0.875 C-3 0 -3 0 0 0 Z " fill="#2F5AAA" transform="translate(454,272)"/>
<path d="M0 0 C0 0.33 0 0.66 0 1 C-1.98 1 -3.96 1 -6 1 C-6 1.66 -6 2.32 -6 3 C-8.31 3.33 -10.62 3.66 -13 4 C-8.74504132 -0.44836589 -5.9812469 -0.09647172 0 0 Z " fill="#476EBC" transform="translate(847,914)"/>
<path d="M0 0 C0.66 0 1.32 0 2 0 C2.33 1.65 2.66 3.3 3 5 C0.69 5 -1.62 5 -4 5 C-2.71937515 3.2925002 -1.38232443 1.62626404 0 0 Z " fill="#2F5AAE" transform="translate(562,664)"/>
<path d="M0 0 C0.99 0 1.98 0 3 0 C3 1.98 3 3.96 3 6 C1.68 6.33 0.36 6.66 -1 7 C-1.04254356 5.00045254 -1.04080783 2.99958364 -1 1 C-0.67 0.67 -0.34 0.34 0 0 Z " fill="#053891" transform="translate(459,624)"/>
<path d="M0 0 C0.33 0 0.66 0 1 0 C1.19622241 4.21878192 0.80230168 7.17010894 -1 11 C-1.33 11 -1.66 11 -2 11 C-2.25 3.375 -2.25 3.375 0 0 Z " fill="#083F91" transform="translate(703,580)"/>
<path d="M0 0 C0.66 0 1.32 0 2 0 C1.01 3.96 0.02 7.92 -1 12 C-1.66 10.68 -2.32 9.36 -3 8 C-2.34 8 -1.68 8 -1 8 C-1.020625 6.865625 -1.04125 5.73125 -1.0625 4.5625 C-1 1 -1 1 0 0 Z " fill="#2C56A7" transform="translate(359,511)"/>
<path d="M0 0 C0.33 0 0.66 0 1 0 C1 4.95 1 9.9 1 15 C0.01 14.67 -0.98 14.34 -2 14 C-1.67 13.34 -1.34 12.68 -1 12 C-0.77141886 9.9625237 -0.58975722 7.91959697 -0.4375 5.875 C-0.35371094 4.77929688 -0.26992188 3.68359375 -0.18359375 2.5546875 C-0.12300781 1.71164062 -0.06242188 0.86859375 0 0 Z " fill="#DBE4F1" transform="translate(1001,902)"/>
<path d="M0 0 C2.64 0.33 5.28 0.66 8 1 C7.67 1.99 7.34 2.98 7 4 C5.35 3.67 3.7 3.34 2 3 C2 2.34 2 1.68 2 1 C1.34 0.67 0.68 0.34 0 0 Z " fill="#0C3D97" transform="translate(1126,871)"/>
<path d="M0 0 C1.258125 -0.020625 2.51625 -0.04125 3.8125 -0.0625 C4.52019531 -0.07410156 5.22789062 -0.08570313 5.95703125 -0.09765625 C8 0 8 0 11 1 C11.33 1.99 11.66 2.98 12 4 C6.06 2.515 6.06 2.515 0 1 C0 0.67 0 0.34 0 0 Z " fill="#6DB54C" transform="translate(264,778)"/>
<path d="M0 0 C0.66 0.33 1.32 0.66 2 1 C-3.14285714 6.57142857 -3.14285714 6.57142857 -7 7 C-4.66666667 4.66666667 -2.33333333 2.33333333 0 0 Z " fill="#1C48A3" transform="translate(993,668)"/>
<path d="M0 0 C0.94875 0.04125 1.8975 0.0825 2.875 0.125 C3.205 1.115 3.535 2.105 3.875 3.125 C0.905 2.795 -2.065 2.465 -5.125 2.125 C-3.125 0.125 -3.125 0.125 0 0 Z " fill="#15449C" transform="translate(955.125,498.875)"/>
<path d="M0 0 C0.33 0 0.66 0 1 0 C1.125 6.625 1.125 6.625 0 10 C-1.32 10 -2.64 10 -4 10 C-4 9.34 -4 8.68 -4 8 C-3.01 7.34 -2.02 6.68 -1 6 C-0.26656572 2.93443402 -0.26656572 2.93443402 0 0 Z " fill="#023197" transform="translate(994,862)"/>
<path d="M0 0 C0.66 0.33 1.32 0.66 2 1 C2 1.99 2 2.98 2 4 C2.66 4.33 3.32 4.66 4 5 C2.02 5 0.04 5 -2 5 C-1.125 1.125 -1.125 1.125 0 0 Z " fill="#EEF1F6" transform="translate(1045,850)"/>
<path d="M0 0 C1.17539996 0.92652701 2.34010577 1.86663387 3.5 2.8125 C4.1496875 3.33457031 4.799375 3.85664062 5.46875 4.39453125 C7 6 7 6 7 9 C6.34 8.67 5.68 8.34 5 8 C5 7.34 5 6.68 5 6 C4.360625 5.7525 3.72125 5.505 3.0625 5.25 C1 4 1 4 0.37109375 1.921875 C0.24863281 1.28765625 0.12617187 0.6534375 0 0 Z " fill="#2650AF" transform="translate(724,664)"/>
<path d="M0 0 C2.5 2.3125 2.5 2.3125 5 5 C5 5.99 5 6.98 5 8 C2.5 5.6875 2.5 5.6875 0 3 C0 2.01 0 1.02 0 0 Z " fill="#1948A8" transform="translate(898,386)"/>
<path d="M0 0 C2.64 0.33 5.28 0.66 8 1 C8 1.33 8 1.66 8 2 C6.02 2 4.04 2 2 2 C1.67 2.99 1.34 3.98 1 5 C0.67 5 0.34 5 0 5 C0 3.35 0 1.7 0 0 Z " fill="#043599" transform="translate(1052,937)"/>
<path d="M0 0 C1.98 0 3.96 0 6 0 C6 0.99 6 1.98 6 3 C5.01 3 4.02 3 3 3 C3 2.34 3 1.68 3 1 C2.34 1 1.68 1 1 1 C1 2.65 1 4.3 1 6 C0.67 6 0.34 6 0 6 C0 4.02 0 2.04 0 0 Z " fill="#0B4193" transform="translate(933,917)"/>
<path d="M0 0 C-1.125 1.5625 -1.125 1.5625 -3 3 C-6.1875 2.6875 -6.1875 2.6875 -9 2 C-5.5647952 -0.29013653 -4.014669 -0.17842973 0 0 Z " fill="#56AC37" transform="translate(838,776)"/>
<path d="M0 0 C0 0.33 0 0.66 0 1 C-4.79137588 2.6290678 -8.05632546 3.20577428 -13 2 C-13 1.67 -13 1.34 -13 1 C-8.59085217 -0.10228696 -4.51617599 -0.07654536 0 0 Z " fill="#B1C1E1" transform="translate(942,716)"/>
<path d="M0 0 C0.99 0.33 1.98 0.66 3 1 C2.67 2.32 2.34 3.64 2 5 C0.68 5 -0.64 5 -2 5 C-1.125 1.125 -1.125 1.125 0 0 Z " fill="#D1DBED" transform="translate(349,639)"/>
<path d="M0 0 C0.66 0 1.32 0 2 0 C2.625 2.875 2.625 2.875 3 6 C2.34 6.66 1.68 7.32 1 8 C-0.35439668 5.29120665 -0.06501451 2.99066732 0 0 Z " fill="#18469F" transform="translate(270,515)"/>
<path d="M0 0 C0.33 0.66 0.66 1.32 1 2 C-0.32 3.65 -1.64 5.3 -3 7 C-3.99 6.67 -4.98 6.34 -6 6 C-4.02 4.02 -2.04 2.04 0 0 Z " fill="#2B52A5" transform="translate(343,349)"/>
</svg>
